<svg width="32" height="12" viewBox="0 0 32 12" fill="none" xmlns="http://www.w3.org/2000/svg">
<path d="M0.232 1.032H3.578C5.174 1.032 6.406 1.466 7.274 2.334C8.15133 3.19267 8.59 4.41533 8.59 6.002C8.59 7.598 8.15133 8.83 7.274 9.698C6.406 10.566 5.174 11 3.578 11H0.232V1.032ZM3.508 10.02C4.796 10.02 5.762 9.684 6.406 9.012C7.05933 8.34 7.386 7.33667 7.386 6.002C7.386 3.342 6.09333 2.012 3.508 2.012H1.38V10.02H3.508ZM13.8133 3.79C14.0466 3.79 14.2613 3.818 14.4573 3.874L14.4293 4.91C14.2146 4.83533 13.9673 4.798 13.6873 4.798C13.006 4.798 12.4973 5.01267 12.1613 5.442C11.8346 5.862 11.6713 6.37533 11.6713 6.982V11H10.5373V5.932C10.5373 5.204 10.5 4.546 10.4253 3.958H11.5033L11.6153 5.26C11.7926 4.784 12.0773 4.42 12.4693 4.168C12.8613 3.916 13.3093 3.79 13.8133 3.79ZM21.6749 3.958V11H20.5549V9.726C20.3495 10.1647 20.0369 10.5053 19.6169 10.748C19.2062 10.9813 18.7255 11.098 18.1749 11.098C17.5495 11.098 16.9989 10.9487 16.5229 10.65C16.0562 10.3513 15.6922 9.93133 15.4309 9.39C15.1789 8.83933 15.0529 8.2 15.0529 7.472C15.0529 6.744 15.1835 6.10467 15.4449 5.554C15.7062 4.994 16.0702 4.56 16.5369 4.252C17.0129 3.944 17.5589 3.79 18.1749 3.79C18.7255 3.79 19.2062 3.91133 19.6169 4.154C20.0275 4.39667 20.3402 4.73733 20.5549 5.176V3.958H21.6749ZM18.3989 10.16C19.0895 10.16 19.6215 9.92667 19.9949 9.46C20.3682 8.984 20.5549 8.312 20.5549 7.444C20.5549 6.576 20.3682 5.90867 19.9949 5.442C19.6215 4.97533 19.0895 4.742 18.3989 4.742C17.7082 4.742 17.1669 4.98467 16.7749 5.47C16.3922 5.946 16.2009 6.61333 16.2009 7.472C16.2009 8.33067 16.3922 8.99333 16.7749 9.46C17.1575 9.92667 17.6989 10.16 18.3989 10.16ZM26.5694 1.62C26.1961 1.62 25.9021 1.72733 25.6874 1.942C25.4821 2.14733 25.3794 2.50667 25.3794 3.02V3.958H27.1014V4.854H25.3794V11H24.2454V4.854H22.8734V3.958H24.2454V2.88C24.2454 2.14267 24.4274 1.58733 24.7914 1.214C25.1647 0.831334 25.6827 0.64 26.3454 0.64C26.6721 0.64 26.9894 0.682 27.2974 0.766V1.732C27.0361 1.65733 26.7934 1.62 26.5694 1.62ZM29.7681 4.854V8.704C29.7681 9.22667 29.8754 9.59533 30.0901 9.81C30.3047 10.0153 30.6081 10.118 31.0001 10.118C31.2614 10.118 31.5134 10.076 31.7561 9.992V10.958C31.4667 11.0513 31.1401 11.098 30.7761 11.098C30.1041 11.098 29.5767 10.9113 29.1941 10.538C28.8207 10.1553 28.6341 9.59533 28.6341 8.858V4.854H27.2621V3.958H28.6341V2.152L29.7681 1.746V3.958H31.7841V4.854H29.7681Z" fill="#405169"/>
</svg>
