<svg width="117" height="15" viewBox="0 0 117 15" fill="none" xmlns="http://www.w3.org/2000/svg">
<path d="M8.058 11H6.84L5.608 7.682C5.45867 7.27133 5.24867 6.996 4.978 6.856C4.71667 6.716 4.34333 6.646 3.858 6.646H1.366V11H0.232V1.032H4.194C5.26733 1.032 6.08867 1.27 6.658 1.746C7.23667 2.222 7.526 2.908 7.526 3.804C7.526 4.45733 7.35333 5.008 7.008 5.456C6.672 5.89467 6.182 6.20733 5.538 6.394C5.82733 6.44067 6.07467 6.56667 6.28 6.772C6.48533 6.968 6.658 7.25267 6.798 7.626L8.058 11ZM4.096 5.694C5.62667 5.694 6.392 5.06867 6.392 3.818C6.392 3.202 6.20533 2.74467 5.832 2.446C5.45867 2.138 4.88 1.984 4.096 1.984H1.366V5.694H4.096ZM15.693 7.444H10.527C10.5364 8.34 10.7417 9.01667 11.143 9.474C11.5537 9.93133 12.1464 10.16 12.921 10.16C13.7424 10.16 14.4984 9.88467 15.189 9.334L15.567 10.16C15.259 10.4493 14.8624 10.678 14.377 10.846C13.901 11.014 13.411 11.098 12.907 11.098C11.8057 11.098 10.9424 10.776 10.317 10.132C9.6917 9.47867 9.37903 8.58733 9.37903 7.458C9.37903 6.73933 9.51903 6.10467 9.79903 5.554C10.079 4.994 10.471 4.56 10.975 4.252C11.479 3.944 12.053 3.79 12.697 3.79C13.6304 3.79 14.363 4.098 14.895 4.714C15.427 5.32067 15.693 6.16067 15.693 7.234V7.444ZM12.711 4.672C12.123 4.672 11.6424 4.84933 11.269 5.204C10.905 5.55867 10.6717 6.058 10.569 6.702H14.671C14.615 6.03933 14.419 5.53533 14.083 5.19C13.7564 4.84467 13.299 4.672 12.711 4.672ZM20.3683 11.098C19.6869 11.098 19.0896 10.9487 18.5763 10.65C18.0723 10.3513 17.6803 9.93133 17.4003 9.39C17.1296 8.83933 16.9943 8.2 16.9943 7.472C16.9943 6.744 17.1343 6.10467 17.4143 5.554C17.6943 4.994 18.0909 4.56 18.6043 4.252C19.1269 3.944 19.7336 3.79 20.4243 3.79C20.9003 3.79 21.3576 3.874 21.7963 4.042C22.2443 4.20067 22.6129 4.42467 22.9023 4.714L22.5243 5.554C22.1696 5.274 21.8243 5.06867 21.4883 4.938C21.1616 4.80733 20.8256 4.742 20.4803 4.742C19.7616 4.742 19.1969 4.98467 18.7863 5.47C18.3756 5.946 18.1703 6.61333 18.1703 7.472C18.1703 8.32133 18.3709 8.984 18.7723 9.46C19.1829 9.92667 19.7523 10.16 20.4803 10.16C20.8256 10.16 21.1616 10.0947 21.4883 9.964C21.8243 9.83333 22.1696 9.628 22.5243 9.348L22.9023 10.188C22.6036 10.468 22.2256 10.692 21.7683 10.86C21.3203 11.0187 20.8536 11.098 20.3683 11.098ZM30.2399 3.958V11H29.1339V9.782C28.9099 10.2113 28.5972 10.538 28.1959 10.762C27.7946 10.986 27.3419 11.098 26.8379 11.098C26.0072 11.098 25.3772 10.8647 24.9479 10.398C24.5186 9.93133 24.3039 9.24067 24.3039 8.326V3.958H25.4379V8.298C25.4379 8.93267 25.5686 9.39933 25.8299 9.698C26.0912 9.99667 26.4879 10.146 27.0199 10.146C27.6452 10.146 28.1492 9.94533 28.5319 9.544C28.9146 9.13333 29.1059 8.59667 29.1059 7.934V3.958H30.2399ZM35.702 3.79C35.9353 3.79 36.15 3.818 36.346 3.874L36.318 4.91C36.1033 4.83533 35.856 4.798 35.576 4.798C34.8947 4.798 34.386 5.01267 34.05 5.442C33.7233 5.862 33.56 6.37533 33.56 6.982V11H32.426V5.932C32.426 5.204 32.3887 4.546 32.314 3.958H33.392L33.504 5.26C33.6813 4.784 33.966 4.42 34.358 4.168C34.75 3.916 35.198 3.79 35.702 3.79ZM40.7743 3.79C41.0076 3.79 41.2223 3.818 41.4183 3.874L41.3903 4.91C41.1756 4.83533 40.9283 4.798 40.6483 4.798C39.9669 4.798 39.4582 5.01267 39.1223 5.442C38.7956 5.862 38.6322 6.37533 38.6322 6.982V11H37.4983V5.932C37.4983 5.204 37.4609 4.546 37.3863 3.958H38.4642L38.5763 5.26C38.7536 4.784 39.0382 4.42 39.4303 4.168C39.8223 3.916 40.2702 3.79 40.7743 3.79ZM42.5705 3.958H43.7045V11H42.5705V3.958ZM43.8445 0.976V2.264H42.4585V0.976H43.8445ZM49.4205 3.79C51.1098 3.79 51.9545 4.71867 51.9545 6.576V11H50.8205V6.632C50.8205 5.97867 50.6898 5.50267 50.4285 5.204C50.1671 4.896 49.7565 4.742 49.1965 4.742C48.5431 4.742 48.0205 4.94267 47.6285 5.344C47.2365 5.74533 47.0405 6.28667 47.0405 6.968V11H45.9065V5.932C45.9065 5.204 45.8691 4.546 45.7945 3.958H46.8725L46.9845 5.218C47.1991 4.76067 47.5211 4.41067 47.9505 4.168C48.3798 3.916 48.8698 3.79 49.4205 3.79ZM60.3679 3.958V10.944C60.3679 11.9893 60.0972 12.778 59.5559 13.31C59.0239 13.8513 58.2352 14.122 57.1899 14.122C56.1166 14.122 55.1926 13.8793 54.4179 13.394L54.6139 12.47C55.0619 12.722 55.4819 12.904 55.8739 13.016C56.2752 13.128 56.7139 13.184 57.1899 13.184C57.8712 13.184 58.3846 13.002 58.7299 12.638C59.0752 12.2833 59.2479 11.7513 59.2479 11.042V9.376C59.0332 9.824 58.7159 10.174 58.2959 10.426C57.8852 10.6687 57.3952 10.79 56.8259 10.79C56.2099 10.79 55.6592 10.6453 55.1739 10.356C54.6979 10.0667 54.3292 9.656 54.0679 9.124C53.8066 8.592 53.6759 7.98067 53.6759 7.29C53.6759 6.59933 53.8066 5.988 54.0679 5.456C54.3292 4.924 54.6979 4.51333 55.1739 4.224C55.6592 3.93467 56.2099 3.79 56.8259 3.79C57.3859 3.79 57.8712 3.91133 58.2819 4.154C58.7019 4.39667 59.0192 4.73733 59.2339 5.176V3.958H60.3679ZM57.0499 9.838C57.7312 9.838 58.2632 9.614 58.6459 9.166C59.0379 8.70867 59.2339 8.08333 59.2339 7.29C59.2339 6.49667 59.0379 5.876 58.6459 5.428C58.2632 4.97067 57.7312 4.742 57.0499 4.742C56.3592 4.742 55.8132 4.97067 55.4119 5.428C55.0199 5.876 54.8239 6.49667 54.8239 7.29C54.8239 8.08333 55.0199 8.70867 55.4119 9.166C55.8132 9.614 56.3592 9.838 57.0499 9.838ZM66.3355 1.032H67.4835V11H66.3355V1.032ZM73.3189 3.79C75.0082 3.79 75.8529 4.71867 75.8529 6.576V11H74.7189V6.632C74.7189 5.97867 74.5882 5.50267 74.3269 5.204C74.0656 4.896 73.6549 4.742 73.0949 4.742C72.4416 4.742 71.9189 4.94267 71.5269 5.344C71.1349 5.74533 70.9389 6.28667 70.9389 6.968V11H69.8049V5.932C69.8049 5.204 69.7676 4.546 69.6929 3.958H70.7709L70.8829 5.218C71.0976 4.76067 71.4196 4.41067 71.8489 4.168C72.2782 3.916 72.7682 3.79 73.3189 3.79ZM84.1823 3.972L81.1443 11H80.0663L77.0703 3.972H78.2603L80.6403 9.768L83.0483 3.972H84.1823ZM88.2618 11.098C87.5991 11.098 87.0158 10.9487 86.5118 10.65C86.0078 10.3513 85.6158 9.92667 85.3358 9.376C85.0651 8.82533 84.9298 8.18133 84.9298 7.444C84.9298 6.70667 85.0651 6.06267 85.3358 5.512C85.6158 4.96133 86.0078 4.53667 86.5118 4.238C87.0158 3.93933 87.5991 3.79 88.2618 3.79C88.9245 3.79 89.5078 3.93933 90.0118 4.238C90.5158 4.53667 90.9031 4.96133 91.1738 5.512C91.4538 6.06267 91.5938 6.70667 91.5938 7.444C91.5938 8.18133 91.4538 8.82533 91.1738 9.376C90.9031 9.92667 90.5158 10.3513 90.0118 10.65C89.5078 10.9487 88.9245 11.098 88.2618 11.098ZM88.2618 10.16C88.9618 10.16 89.4985 9.93133 89.8718 9.474C90.2451 9.00733 90.4318 8.33067 90.4318 7.444C90.4318 6.58533 90.2405 5.92267 89.8578 5.456C89.4751 4.98 88.9431 4.742 88.2618 4.742C87.5711 4.742 87.0345 4.98 86.6518 5.456C86.2691 5.92267 86.0778 6.58533 86.0778 7.444C86.0778 8.33067 86.2645 9.00733 86.6378 9.474C87.0205 9.93133 87.5618 10.16 88.2618 10.16ZM93.3615 3.958H94.4955V11H93.3615V3.958ZM94.6355 0.976V2.264H93.2495V0.976H94.6355ZM99.6515 11.098C98.9701 11.098 98.3728 10.9487 97.8595 10.65C97.3555 10.3513 96.9635 9.93133 96.6835 9.39C96.4128 8.83933 96.2775 8.2 96.2775 7.472C96.2775 6.744 96.4175 6.10467 96.6975 5.554C96.9775 4.994 97.3741 4.56 97.8875 4.252C98.4101 3.944 99.0168 3.79 99.7075 3.79C100.183 3.79 100.641 3.874 101.079 4.042C101.527 4.20067 101.896 4.42467 102.185 4.714L101.807 5.554C101.453 5.274 101.107 5.06867 100.771 4.938C100.445 4.80733 100.109 4.742 99.7635 4.742C99.0448 4.742 98.4801 4.98467 98.0695 5.47C97.6588 5.946 97.4535 6.61333 97.4535 7.472C97.4535 8.32133 97.6541 8.984 98.0555 9.46C98.4661 9.92667 99.0355 10.16 99.7635 10.16C100.109 10.16 100.445 10.0947 100.771 9.964C101.107 9.83333 101.453 9.628 101.807 9.348L102.185 10.188C101.887 10.468 101.509 10.692 101.051 10.86C100.603 11.0187 100.137 11.098 99.6515 11.098ZM109.523 7.444H104.357C104.366 8.34 104.572 9.01667 104.973 9.474C105.384 9.93133 105.976 10.16 106.751 10.16C107.572 10.16 108.328 9.88467 109.019 9.334L109.397 10.16C109.089 10.4493 108.692 10.678 108.207 10.846C107.731 11.014 107.241 11.098 106.737 11.098C105.636 11.098 104.772 10.776 104.147 10.132C103.522 9.47867 103.209 8.58733 103.209 7.458C103.209 6.73933 103.349 6.10467 103.629 5.554C103.909 4.994 104.301 4.56 104.805 4.252C105.309 3.944 105.883 3.79 106.527 3.79C107.46 3.79 108.193 4.098 108.725 4.714C109.257 5.32067 109.523 6.16067 109.523 7.234V7.444ZM106.541 4.672C105.953 4.672 105.472 4.84933 105.099 5.204C104.735 5.55867 104.502 6.058 104.399 6.702H108.501C108.445 6.03933 108.249 5.53533 107.913 5.19C107.586 4.84467 107.129 4.672 106.541 4.672ZM113.624 11.098C112.439 11.098 111.501 10.7947 110.81 10.188L111.188 9.348C111.571 9.64667 111.958 9.86133 112.35 9.992C112.742 10.1227 113.181 10.188 113.666 10.188C114.198 10.188 114.6 10.0993 114.87 9.922C115.15 9.73533 115.29 9.46933 115.29 9.124C115.29 8.844 115.197 8.62 115.01 8.452C114.824 8.284 114.516 8.15333 114.086 8.06L112.896 7.78C112.308 7.64933 111.851 7.416 111.524 7.08C111.207 6.744 111.048 6.34267 111.048 5.876C111.048 5.26 111.296 4.76067 111.79 4.378C112.285 3.986 112.938 3.79 113.75 3.79C114.245 3.79 114.712 3.86933 115.15 4.028C115.589 4.18667 115.958 4.41533 116.256 4.714L115.878 5.54C115.216 4.98933 114.506 4.714 113.75 4.714C113.246 4.714 112.854 4.812 112.574 5.008C112.304 5.19467 112.168 5.46067 112.168 5.806C112.168 6.09533 112.252 6.324 112.42 6.492C112.598 6.66 112.878 6.79067 113.26 6.884L114.45 7.178C115.104 7.32733 115.589 7.56067 115.906 7.878C116.224 8.186 116.382 8.592 116.382 9.096C116.382 9.70267 116.135 10.188 115.64 10.552C115.146 10.916 114.474 11.098 113.624 11.098Z" fill="#405169"/>
</svg>
