<svg width="51" height="809" viewBox="0 0 51 809" fill="none" xmlns="http://www.w3.org/2000/svg">
<path fill-rule="evenodd" clip-rule="evenodd" d="M-9 0H51V809H-9V0Z" fill="url(#paint0_linear_1_202)"/>
<path d="M30.5032 34.3248L21.2624 26.1537C21.0308 25.9488 20.687 25.9488 20.4554 26.1537L17.1607 29.0651V27.8859C17.1607 27.192 16.6087 26.6289 15.9286 26.6289C15.2485 26.6289 14.6965 27.192 14.6965 27.8859V31.2437L11.2121 34.3248C10.9558 34.5523 10.9275 34.9496 11.1505 35.2123C11.3748 35.4738 11.7629 35.5015 12.0204 35.2752L20.8571 27.461L29.6925 35.2752C29.8108 35.3783 29.9525 35.4286 30.0966 35.4286C30.2703 35.4286 30.4391 35.3544 30.5611 35.2123C30.7878 34.9496 30.7582 34.5549 30.5032 34.3248Z" fill="white"/>
<path d="M21.6258 30.57C21.4036 30.3817 21.1304 30.2857 20.8571 30.2857C20.5839 30.2857 20.3107 30.3805 20.0873 30.57L14.0159 35.6804C13.7341 35.9173 13.5714 36.2701 13.5714 36.6454V42.7532C13.5714 43.4415 14.1154 44 14.7857 44H18.4286V37.7662H23.2857V44H26.9286C27.5977 44 28.1429 43.4415 28.1429 42.7533V36.6454C28.1429 36.2689 27.9789 35.9173 27.6972 35.6817L21.6258 30.57Z" fill="white"/>
<path fill-rule="evenodd" clip-rule="evenodd" d="M-1 157C-1 154.239 1.23858 152 4 152H39C41.7614 152 44 154.239 44 157V192C44 194.761 41.7614 197 39 197H4C1.23858 197 -1 194.761 -1 192V157Z" fill="#2350BC" fill-opacity="0.3"/>
<path d="M20.0777 104.002C20.0777 103.392 20.2222 102.816 20.4775 102.304C20.3698 102.299 20.8227 102.3 13.866 102.3C12.3094 102.3 11.0221 103.566 11.0142 105.138L11 107.96C12.1014 107.96 12.323 107.96 13.4102 107.96L13.4243 105.15C13.425 105.011 13.5381 104.899 13.6772 104.899C13.8162 104.899 13.9287 105.012 13.9287 105.151V107.96H17.3072C18.0353 106.796 19.2873 106.065 20.6499 106.009C20.2801 105.413 20.0777 104.726 20.0777 104.002Z" fill="white"/>
<path d="M17.0975 96C15.7182 96 14.6 97.1182 14.6 98.4975C14.6 99.8706 15.7117 100.995 17.0975 100.995C18.467 100.995 19.5951 99.8856 19.5951 98.4975C19.5951 97.1181 18.4769 96 17.0975 96Z" fill="white"/>
<path d="M30.3376 113.425L30.3173 110.537C30.3095 108.979 29.0361 107.7 27.4656 107.7C25.6522 107.7 23.0477 107.7 21.148 107.7C19.5834 107.7 18.2221 108.973 18.2142 110.537L18.2 113.425H20.6102L20.6243 110.55C20.6249 110.43 20.7223 110.333 20.8421 110.333C20.9619 110.334 21.0587 110.431 21.0587 110.551V113.425C22.4715 113.425 26.1185 113.425 27.4417 113.425V110.551C27.4417 110.422 27.5455 110.318 27.6738 110.318C27.802 110.318 27.9065 110.421 27.9071 110.549L27.9212 113.425L30.3376 113.425Z" fill="white"/>
<path d="M23.4267 106.453C24.8221 106.453 25.9534 105.322 25.9534 103.927C25.9534 102.531 24.8221 101.4 23.4267 101.4C22.0312 101.4 20.9 102.531 20.9 103.927C20.9 105.322 22.0312 106.453 23.4267 106.453Z" fill="white"/>
<path fill-rule="evenodd" clip-rule="evenodd" d="M13 166V180.985C13 182.641 14.3419 183.982 15.997 183.982C17.6521 183.982 18.9942 182.641 18.9942 180.985V177.988H23.4898V166H13ZM14.4986 167.499H18.9942V168.997H14.4986V167.499ZM14.4986 177.988H17.4956V176.49H14.4986V177.988ZM20.4926 174.991H14.4986V173.493H20.4926V174.991ZM14.4986 171.994H21.9912V170.496H14.4986V171.994Z" fill="white"/>
<path d="M20.4926 179.487V180.985C20.4926 182.137 20.0536 183.186 19.3379 183.982H25.7376C27.3927 183.982 28.7346 182.641 28.7346 180.985V179.487H20.4926Z" fill="white"/>
<path fill-rule="evenodd" clip-rule="evenodd" d="M18.5218 253.775L11.5935 246.836C11.3417 246.583 11.3417 246.171 11.5935 245.918L21.4964 236C20.4279 236 18.9356 236.619 18.1801 237.376L10.5666 245.001C9.81113 245.758 9.81113 246.996 10.5666 247.753L16.2374 253.432C16.8531 254.049 17.7879 254.163 18.5218 253.775ZM29.9145 236H25.3817C24.3132 236 22.8209 236.619 22.0654 237.376L14.4519 245.001C13.6964 245.758 13.6964 246.996 14.4519 247.753L20.1227 253.432C20.8782 254.189 22.1145 254.189 22.8701 253.432L30.4834 245.807C31.239 245.05 31.8571 243.556 31.8571 242.486V237.946C31.8571 236.876 30.983 236 29.9145 236ZM27.3243 242.486C26.2514 242.486 25.3817 241.615 25.3817 240.54C25.3817 239.465 26.2514 238.594 27.3243 238.594C28.3972 238.594 29.2669 239.465 29.2669 240.54C29.2669 241.615 28.3972 242.486 27.3243 242.486Z" fill="white"/>
<defs>
<linearGradient id="paint0_linear_1_202" x1="-9" y1="0" x2="-9" y2="809" gradientUnits="userSpaceOnUse">
<stop stop-color="#4C8DEB"/>
<stop offset="1" stop-color="#4C60EB"/>
</linearGradient>
</defs>
</svg>
