<svg width="158" height="16" viewBox="0 0 158 16" fill="none" xmlns="http://www.w3.org/2000/svg">
<path fill-rule="evenodd" clip-rule="evenodd" d="M0 2V3.66667H15.692V2H0ZM0 12H5.23067V10.3333H0V12ZM10.4613 7.83333H0V6.16667H10.4613V7.83333Z" fill="#405169"/>
<path d="M24.9522 12.096C23.6162 12.096 22.5522 11.736 21.7602 11.016L22.1322 10.26C22.5562 10.62 22.9882 10.876 23.4282 11.028C23.8682 11.18 24.3802 11.256 24.9642 11.256C25.6522 11.256 26.1802 11.124 26.5482 10.86C26.9242 10.588 27.1122 10.208 27.1122 9.72C27.1122 9.432 27.0202 9.2 26.8362 9.024C26.6602 8.84 26.4242 8.696 26.1282 8.592C25.8402 8.488 25.4522 8.38 24.9642 8.268C24.3082 8.124 23.7682 7.968 23.3442 7.8C22.9202 7.632 22.5762 7.392 22.3122 7.08C22.0482 6.76 21.9162 6.344 21.9162 5.832C21.9162 5.344 22.0442 4.916 22.3002 4.548C22.5562 4.172 22.9162 3.88 23.3802 3.672C23.8522 3.464 24.4002 3.36 25.0242 3.36C25.6162 3.36 26.1682 3.452 26.6802 3.636C27.1922 3.82 27.6242 4.088 27.9762 4.44L27.5922 5.196C27.1922 4.852 26.7842 4.6 26.3682 4.44C25.9602 4.28 25.5122 4.2 25.0242 4.2C24.3602 4.2 23.8402 4.344 23.4642 4.632C23.0882 4.912 22.9002 5.3 22.9002 5.796C22.9002 6.228 23.0642 6.552 23.3922 6.768C23.7202 6.984 24.2242 7.172 24.9042 7.332C25.6402 7.508 26.2162 7.672 26.6322 7.824C27.0562 7.968 27.4082 8.192 27.6882 8.496C27.9682 8.792 28.1082 9.188 28.1082 9.684C28.1082 10.164 27.9802 10.588 27.7242 10.956C27.4682 11.316 27.1002 11.596 26.6202 11.796C26.1482 11.996 25.5922 12.096 24.9522 12.096ZM32.0928 12.084C31.5248 12.084 31.0248 11.956 30.5928 11.7C30.1608 11.444 29.8248 11.08 29.5848 10.608C29.3528 10.136 29.2368 9.584 29.2368 8.952C29.2368 8.32 29.3528 7.768 29.5848 7.296C29.8248 6.824 30.1608 6.46 30.5928 6.204C31.0248 5.948 31.5248 5.82 32.0928 5.82C32.6608 5.82 33.1608 5.948 33.5928 6.204C34.0248 6.46 34.3568 6.824 34.5888 7.296C34.8288 7.768 34.9488 8.32 34.9488 8.952C34.9488 9.584 34.8288 10.136 34.5888 10.608C34.3568 11.08 34.0248 11.444 33.5928 11.7C33.1608 11.956 32.6608 12.084 32.0928 12.084ZM32.0928 11.28C32.6928 11.28 33.1528 11.084 33.4728 10.692C33.7928 10.292 33.9528 9.712 33.9528 8.952C33.9528 8.216 33.7888 7.648 33.4608 7.248C33.1328 6.84 32.6768 6.636 32.0928 6.636C31.5008 6.636 31.0408 6.84 30.7128 7.248C30.3848 7.648 30.2208 8.216 30.2208 8.952C30.2208 9.712 30.3808 10.292 30.7008 10.692C31.0288 11.084 31.4928 11.28 32.0928 11.28ZM39.272 5.82C39.472 5.82 39.656 5.844 39.824 5.892L39.8 6.78C39.616 6.716 39.404 6.684 39.164 6.684C38.58 6.684 38.144 6.868 37.856 7.236C37.576 7.596 37.436 8.036 37.436 8.556V12H36.464V7.656C36.464 7.032 36.432 6.468 36.368 5.964H37.292L37.388 7.08C37.54 6.672 37.784 6.36 38.12 6.144C38.456 5.928 38.84 5.82 39.272 5.82ZM42.5764 6.732V10.032C42.5764 10.48 42.6684 10.796 42.8524 10.98C43.0364 11.156 43.2964 11.244 43.6324 11.244C43.8564 11.244 44.0724 11.208 44.2804 11.136V11.964C44.0324 12.044 43.7524 12.084 43.4404 12.084C42.8644 12.084 42.4124 11.924 42.0844 11.604C41.7644 11.276 41.6044 10.796 41.6044 10.164V6.732H40.4284V5.964H41.6044V4.416L42.5764 4.068V5.964H44.3044V6.732H42.5764ZM51.6166 5.82C52.1446 5.82 52.6126 5.948 53.0206 6.204C53.4286 6.46 53.7446 6.824 53.9686 7.296C54.1926 7.76 54.3046 8.304 54.3046 8.928C54.3046 9.552 54.1926 10.104 53.9686 10.584C53.7446 11.056 53.4286 11.424 53.0206 11.688C52.6126 11.952 52.1446 12.084 51.6166 12.084C51.1446 12.084 50.7326 11.98 50.3806 11.772C50.0286 11.564 49.7606 11.268 49.5766 10.884V12H48.6046V3.168H49.5766V7.032C49.7526 6.64 50.0166 6.34 50.3686 6.132C50.7286 5.924 51.1446 5.82 51.6166 5.82ZM51.4366 11.28C52.0206 11.28 52.4766 11.076 52.8046 10.668C53.1326 10.252 53.2966 9.672 53.2966 8.928C53.2966 8.2 53.1326 7.636 52.8046 7.236C52.4846 6.836 52.0286 6.636 51.4366 6.636C50.8366 6.636 50.3766 6.836 50.0566 7.236C49.7366 7.636 49.5766 8.208 49.5766 8.952C49.5766 9.696 49.7366 10.272 50.0566 10.68C50.3766 11.08 50.8366 11.28 51.4366 11.28ZM61.0336 5.964L58.2136 12.552C57.9176 13.24 57.5456 13.744 57.0976 14.064C56.6496 14.384 56.0976 14.604 55.4416 14.724L55.2376 13.968C55.8056 13.84 56.2336 13.668 56.5216 13.452C56.8176 13.244 57.0616 12.92 57.2536 12.48L57.4936 11.94L54.9376 5.964H55.9576L57.9976 10.944L60.0616 5.964H61.0336ZM65.3535 3.456H68.2215C69.5895 3.456 70.6455 3.828 71.3895 4.572C72.1415 5.308 72.5175 6.356 72.5175 7.716C72.5175 9.084 72.1415 10.14 71.3895 10.884C70.6455 11.628 69.5895 12 68.2215 12H65.3535V3.456ZM68.1615 11.16C69.2655 11.16 70.0935 10.872 70.6455 10.296C71.2055 9.72 71.4855 8.86 71.4855 7.716C71.4855 5.436 70.3775 4.296 68.1615 4.296H66.3375V11.16H68.1615ZM79.5026 5.964V12H78.5426V10.908C78.3666 11.284 78.0986 11.576 77.7386 11.784C77.3866 11.984 76.9746 12.084 76.5026 12.084C75.9666 12.084 75.4946 11.956 75.0866 11.7C74.6866 11.444 74.3746 11.084 74.1506 10.62C73.9346 10.148 73.8266 9.6 73.8266 8.976C73.8266 8.352 73.9386 7.804 74.1626 7.332C74.3866 6.852 74.6986 6.48 75.0986 6.216C75.5066 5.952 75.9746 5.82 76.5026 5.82C76.9746 5.82 77.3866 5.924 77.7386 6.132C78.0906 6.34 78.3586 6.632 78.5426 7.008V5.964H79.5026ZM76.6946 11.28C77.2866 11.28 77.7426 11.08 78.0626 10.68C78.3826 10.272 78.5426 9.696 78.5426 8.952C78.5426 8.208 78.3826 7.636 78.0626 7.236C77.7426 6.836 77.2866 6.636 76.6946 6.636C76.1026 6.636 75.6386 6.844 75.3026 7.26C74.9746 7.668 74.8106 8.24 74.8106 8.976C74.8106 9.712 74.9746 10.28 75.3026 10.68C75.6306 11.08 76.0946 11.28 76.6946 11.28ZM82.6779 6.732V10.032C82.6779 10.48 82.7699 10.796 82.9539 10.98C83.1379 11.156 83.3979 11.244 83.7339 11.244C83.9579 11.244 84.1739 11.208 84.3819 11.136V11.964C84.1339 12.044 83.8539 12.084 83.5419 12.084C82.9659 12.084 82.5139 11.924 82.1859 11.604C81.8659 11.276 81.7059 10.796 81.7059 10.164V6.732H80.5299V5.964H81.7059V4.416L82.6779 4.068V5.964H84.4059V6.732H82.6779ZM90.6292 8.952H86.2012C86.2092 9.72 86.3852 10.3 86.7292 10.692C87.0812 11.084 87.5892 11.28 88.2532 11.28C88.9572 11.28 89.6052 11.044 90.1972 10.572L90.5212 11.28C90.2572 11.528 89.9172 11.724 89.5012 11.868C89.0932 12.012 88.6732 12.084 88.2412 12.084C87.2972 12.084 86.5572 11.808 86.0212 11.256C85.4852 10.696 85.2172 9.932 85.2172 8.964C85.2172 8.348 85.3372 7.804 85.5772 7.332C85.8172 6.852 86.1532 6.48 86.5852 6.216C87.0172 5.952 87.5092 5.82 88.0612 5.82C88.8612 5.82 89.4892 6.084 89.9452 6.612C90.4012 7.132 90.6292 7.852 90.6292 8.772V8.952ZM88.0732 6.576C87.5692 6.576 87.1572 6.728 86.8372 7.032C86.5252 7.336 86.3252 7.764 86.2372 8.316H89.7532C89.7052 7.748 89.5372 7.316 89.2492 7.02C88.9692 6.724 88.5772 6.576 88.0732 6.576Z" fill="#405169"/>
<path d="M102.124 11.4965L97.2371 7.1981C96.9261 6.92467 96.9261 6.48135 97.2371 6.20806C97.5478 5.93474 98.0518 5.93474 98.3625 6.20806L102.686 10.0115L107.01 6.20817C107.321 5.93485 107.825 5.93485 108.135 6.20817C108.446 6.48149 108.446 6.92478 108.135 7.19821L103.249 11.4966C103.093 11.6333 102.89 11.7015 102.686 11.7015C102.483 11.7015 102.279 11.6331 102.124 11.4965Z" fill="#4C8DEB"/>
</svg>
