<svg width="678" height="89" viewBox="0 0 678 89" fill="none" xmlns="http://www.w3.org/2000/svg">
<g filter="url(#filter0_d_1_394)">
<path fill-rule="evenodd" clip-rule="evenodd" d="M12 15C12 12.2386 14.2386 10 17 10H166C168.761 10 171 12.2386 171 15V70C171 72.7614 168.761 75 166 75H17C14.2386 75 12 72.7614 12 70V15Z" fill="url(#paint0_linear_1_394)"/>
</g>
<path fill-rule="evenodd" clip-rule="evenodd" d="M99 35.5C99 31.9101 101.91 29 105.5 29H113.5C117.09 29 120 31.9101 120 35.5C120 39.0899 117.09 42 113.5 42H105.5C101.91 42 99 39.0899 99 35.5Z" fill="white"/>
<path d="M77.3857 40L81.8517 30.13H83.3637L87.8857 40H86.0517L84.8477 37.228L85.5757 37.718H79.6537L80.4097 37.228L79.2057 40H77.3857ZM82.5937 32.062L80.6197 36.738L80.2557 36.304H84.9597L84.6657 36.738L82.6497 32.062H82.5937ZM88.8377 40V29.696H90.5877V40H88.8377ZM92.4881 40V29.696H94.2381V40H92.4881ZM64.0228 65.61V63.776L64.3448 64.084C63.6635 64.0653 63.0195 63.9627 62.4128 63.776C61.8155 63.58 61.2975 63.3093 60.8588 62.964L61.4048 61.55C61.8435 61.8767 62.3241 62.1287 62.8468 62.306C63.3695 62.4833 63.9435 62.572 64.5688 62.572C65.2688 62.572 65.7775 62.4507 66.0948 62.208C66.4215 61.956 66.5848 61.6433 66.5848 61.27C66.5848 60.962 66.4681 60.7147 66.2348 60.528C66.0108 60.3413 65.6235 60.1873 65.0728 60.066L63.5888 59.744C62.7301 59.5573 62.0908 59.2447 61.6708 58.806C61.2601 58.358 61.0548 57.7747 61.0548 57.056C61.0548 56.5053 61.1901 56.0153 61.4608 55.586C61.7315 55.1473 62.1095 54.7973 62.5948 54.536C63.0801 54.2747 63.6495 54.1207 64.3028 54.074L64.0228 54.284V52.52H65.4228V54.284L65.1288 54.06C65.6608 54.088 66.1835 54.1953 66.6968 54.382C67.2195 54.5687 67.6535 54.8393 67.9988 55.194L67.4668 56.538C67.1121 56.2113 66.7061 55.9687 66.2488 55.81C65.7915 55.642 65.2921 55.558 64.7508 55.558C64.1348 55.558 63.6495 55.6933 63.2948 55.964C62.9401 56.2253 62.7628 56.5707 62.7628 57C62.7628 57.3173 62.8701 57.5787 63.0848 57.784C63.3088 57.98 63.6775 58.134 64.1908 58.246L65.6748 58.568C66.5708 58.7547 67.2335 59.0627 67.6628 59.492C68.1015 59.912 68.3208 60.4673 68.3208 61.158C68.3208 61.6993 68.1855 62.18 67.9148 62.6C67.6441 63.0107 67.2708 63.342 66.7948 63.594C66.3281 63.8367 65.7821 63.9907 65.1568 64.056L65.4228 63.762V65.61H64.0228ZM70.3313 64V62.502H72.5993V55.642H73.4673L70.5553 57.378V55.67L73.1173 54.13H74.4053V62.502H76.5333V64H70.3313ZM81.3719 64.14C80.2145 64.14 79.3092 63.8927 78.6559 63.398C78.0119 62.9033 77.6899 62.2173 77.6899 61.34C77.6899 60.6493 77.8999 60.0753 78.3199 59.618C78.7399 59.1607 79.2859 58.89 79.9579 58.806V59.1C79.3512 58.9693 78.8612 58.6847 78.4879 58.246C78.1239 57.8073 77.9419 57.2753 77.9419 56.65C77.9419 55.8193 78.2452 55.1707 78.8519 54.704C79.4679 54.228 80.3079 53.99 81.3719 53.99C82.4452 53.99 83.2852 54.228 83.8919 54.704C84.5079 55.1707 84.8159 55.8193 84.8159 56.65C84.8159 57.2753 84.6385 57.812 84.2839 58.26C83.9385 58.708 83.4672 58.9833 82.8699 59.086V58.806C83.5325 58.8993 84.0645 59.1747 84.4659 59.632C84.8672 60.08 85.0679 60.6493 85.0679 61.34C85.0679 62.2173 84.7412 62.9033 84.0879 63.398C83.4439 63.8927 82.5385 64.14 81.3719 64.14ZM81.3719 62.74C82.0532 62.74 82.5619 62.614 82.8979 62.362C83.2339 62.1007 83.4019 61.718 83.4019 61.214C83.4019 60.71 83.2339 60.332 82.8979 60.08C82.5619 59.828 82.0532 59.702 81.3719 59.702C80.6999 59.702 80.1912 59.828 79.8459 60.08C79.5099 60.332 79.3419 60.71 79.3419 61.214C79.3419 61.718 79.5099 62.1007 79.8459 62.362C80.1912 62.614 80.6999 62.74 81.3719 62.74ZM81.3719 58.302C81.9505 58.302 82.3892 58.1713 82.6879 57.91C82.9959 57.6487 83.1499 57.2893 83.1499 56.832C83.1499 56.384 82.9959 56.034 82.6879 55.782C82.3892 55.5207 81.9505 55.39 81.3719 55.39C80.8025 55.39 80.3639 55.5207 80.0559 55.782C79.7572 56.034 79.6079 56.384 79.6079 56.832C79.6079 57.2893 79.7572 57.6487 80.0559 57.91C80.3639 58.1713 80.8025 58.302 81.3719 58.302ZM89.0244 64.14C88.4924 64.14 87.9651 64.042 87.4424 63.846C86.9197 63.6407 86.4717 63.3653 86.0984 63.02L86.7004 61.676C87.0457 61.9933 87.4191 62.2313 87.8204 62.39C88.2217 62.5487 88.6277 62.628 89.0384 62.628C89.8691 62.628 90.5037 62.3433 90.9424 61.774C91.3904 61.2047 91.6144 60.3553 91.6144 59.226V58.176H91.7824C91.7171 58.6427 91.5584 59.0487 91.3064 59.394C91.0544 59.7393 90.7371 60.0053 90.3544 60.192C89.9811 60.3693 89.5611 60.458 89.0944 60.458C88.5251 60.458 88.0117 60.3227 87.5544 60.052C87.1064 59.7813 86.7517 59.408 86.4904 58.932C86.2384 58.4467 86.1124 57.9007 86.1124 57.294C86.1124 56.65 86.2524 56.0807 86.5324 55.586C86.8217 55.0913 87.2137 54.704 87.7084 54.424C88.2031 54.1347 88.7724 53.99 89.4164 53.99C90.6671 53.99 91.6284 54.4193 92.3004 55.278C92.9817 56.1273 93.3224 57.3313 93.3224 58.89C93.3224 60.0007 93.1497 60.948 92.8044 61.732C92.4684 62.516 91.9784 63.1133 91.3344 63.524C90.6904 63.9347 89.9204 64.14 89.0244 64.14ZM89.5284 59.03C89.8737 59.03 90.1771 58.9553 90.4384 58.806C90.6997 58.6567 90.9051 58.4467 91.0544 58.176C91.2037 57.896 91.2784 57.5787 91.2784 57.224C91.2784 56.86 91.2037 56.5427 91.0544 56.272C90.9051 56.0013 90.6997 55.7913 90.4384 55.642C90.1771 55.4833 89.8737 55.404 89.5284 55.404C89.1831 55.404 88.8797 55.4833 88.6184 55.642C88.3571 55.7913 88.1517 56.0013 88.0024 56.272C87.8624 56.5427 87.7924 56.86 87.7924 57.224C87.7924 57.5787 87.8624 57.896 88.0024 58.176C88.1517 58.4467 88.3571 58.6567 88.6184 58.806C88.8797 58.9553 89.1831 59.03 89.5284 59.03ZM95.5709 65.862L94.8569 65.302C95.1556 64.994 95.3609 64.7047 95.4729 64.434C95.5943 64.1727 95.6549 63.8927 95.6549 63.594L96.0329 64H94.7169V62.054H96.6769V63.342C96.6769 63.818 96.5929 64.252 96.4249 64.644C96.2663 65.0453 95.9816 65.4513 95.5709 65.862ZM98.6376 64L103.426 55.012V55.642H98.1896V54.13H105.092V55.474L100.612 64H98.6376ZM107.032 64L111.82 55.012V55.642H106.584V54.13H113.486V55.474L109.006 64H107.032ZM119.207 64V62.068H114.797V60.808L119.487 54.13H120.943V60.696H122.357V62.068H120.943V64H119.207ZM119.207 60.696V56.258H119.543L116.141 61.116V60.696H119.207Z" fill="white"/>
<path d="M109.48 31.88V32.84L106.25 39H104.87L108.09 32.93H104.52V31.88H109.48ZM113.436 34.43C113.856 34.43 114.229 34.5267 114.556 34.72C114.889 34.9133 115.149 35.1833 115.336 35.53C115.523 35.8767 115.616 36.2733 115.616 36.72C115.616 37.1733 115.513 37.58 115.306 37.94C115.106 38.3 114.823 38.5833 114.456 38.79C114.096 38.99 113.686 39.09 113.226 39.09C112.326 39.09 111.633 38.7867 111.146 38.18C110.659 37.5667 110.416 36.6967 110.416 35.57C110.416 34.7833 110.529 34.1067 110.756 33.54C110.989 32.9733 111.323 32.54 111.756 32.24C112.196 31.94 112.716 31.79 113.316 31.79C113.743 31.79 114.156 31.8633 114.556 32.01C114.963 32.15 115.316 32.3533 115.616 32.62L115.176 33.56C114.549 33.0667 113.946 32.82 113.366 32.82C112.839 32.82 112.433 33.0433 112.146 33.49C111.859 33.9367 111.709 34.5767 111.696 35.41C111.849 35.11 112.083 34.8733 112.396 34.7C112.709 34.52 113.056 34.43 113.436 34.43ZM113.166 38.07C113.533 38.07 113.826 37.95 114.046 37.71C114.273 37.47 114.386 37.1533 114.386 36.76C114.386 36.3667 114.273 36.0533 114.046 35.82C113.826 35.58 113.529 35.46 113.156 35.46C112.783 35.46 112.479 35.58 112.246 35.82C112.013 36.06 111.896 36.3733 111.896 36.76C111.896 37.1467 112.013 37.4633 112.246 37.71C112.486 37.95 112.793 38.07 113.166 38.07Z" fill="#4C8DEB"/>
<path d="M181.5 15C181.5 12.5147 183.515 10.5 186 10.5H335C337.485 10.5 339.5 12.5147 339.5 15V70C339.5 72.4853 337.485 74.5 335 74.5H186C183.515 74.5 181.5 72.4853 181.5 70V15Z" stroke="#4C8DEB" stroke-opacity="0.186481"/>
<path fill-rule="evenodd" clip-rule="evenodd" d="M275 31.5C275 27.9101 277.91 25 281.5 25H283.5C287.09 25 290 27.9101 290 31.5C290 35.0899 287.09 38 283.5 38H281.5C277.91 38 275 35.0899 275 31.5Z" fill="#A0BCE4"/>
<path d="M256.751 40.112C255.444 40.112 254.455 39.776 253.783 39.104C253.12 38.4227 252.789 37.4193 252.789 36.094V30.032H253.923V36.192C253.923 37.1627 254.161 37.8953 254.637 38.39C255.113 38.8847 255.818 39.132 256.751 39.132C257.675 39.132 258.37 38.8847 258.837 38.39C259.313 37.8953 259.551 37.1627 259.551 36.192V30.032H260.699V36.094C260.699 37.41 260.363 38.4087 259.691 39.09C259.019 39.7713 258.039 40.112 256.751 40.112ZM266.473 32.79C268.163 32.79 269.007 33.7187 269.007 35.576V40H267.873V35.632C267.873 34.9787 267.743 34.5027 267.481 34.204C267.22 33.896 266.809 33.742 266.249 33.742C265.596 33.742 265.073 33.9427 264.681 34.344C264.289 34.7453 264.093 35.2867 264.093 35.968V40H262.959V34.932C262.959 34.204 262.922 33.546 262.847 32.958H263.925L264.037 34.218C264.252 33.7607 264.574 33.4107 265.003 33.168C265.433 32.916 265.923 32.79 266.473 32.79ZM274.663 32.79C275.279 32.79 275.825 32.944 276.301 33.252C276.777 33.56 277.145 33.994 277.407 34.554C277.668 35.1047 277.799 35.744 277.799 36.472C277.799 37.2 277.668 37.8393 277.407 38.39C277.145 38.9313 276.777 39.3513 276.301 39.65C275.834 39.9487 275.288 40.098 274.663 40.098C274.112 40.098 273.631 39.9767 273.221 39.734C272.81 39.4913 272.497 39.146 272.283 38.698V43.024H271.149V34.932C271.149 34.204 271.111 33.546 271.037 32.958H272.115L272.227 34.316C272.423 33.8307 272.731 33.4573 273.151 33.196C273.58 32.9253 274.084 32.79 274.663 32.79ZM274.453 39.16C275.143 39.16 275.675 38.9267 276.049 38.46C276.431 37.9933 276.623 37.3307 276.623 36.472C276.623 35.6133 276.431 34.946 276.049 34.47C275.666 33.9847 275.134 33.742 274.453 33.742C273.753 33.742 273.216 33.9753 272.843 34.442C272.469 34.9087 272.283 35.576 272.283 36.444C272.283 37.312 272.469 37.984 272.843 38.46C273.216 38.9267 273.753 39.16 274.453 39.16ZM285.745 32.958V40H284.625V38.726C284.42 39.1647 284.107 39.5053 283.687 39.748C283.277 39.9813 282.796 40.098 282.245 40.098C281.62 40.098 281.069 39.9487 280.593 39.65C280.127 39.3513 279.763 38.9313 279.501 38.39C279.249 37.8393 279.123 37.2 279.123 36.472C279.123 35.744 279.254 35.1047 279.515 34.554C279.777 33.994 280.141 33.56 280.607 33.252C281.083 32.944 281.629 32.79 282.245 32.79C282.796 32.79 283.277 32.9113 283.687 33.154C284.098 33.3967 284.411 33.7373 284.625 34.176V32.958H285.745ZM282.469 39.16C283.16 39.16 283.692 38.9267 284.065 38.46C284.439 37.984 284.625 37.312 284.625 36.444C284.625 35.576 284.439 34.9087 284.065 34.442C283.692 33.9753 283.16 33.742 282.469 33.742C281.779 33.742 281.237 33.9847 280.845 34.47C280.463 34.946 280.271 35.6133 280.271 36.472C280.271 37.3307 280.463 37.9933 280.845 38.46C281.228 38.9267 281.769 39.16 282.469 39.16ZM287.938 32.958H289.072V40H287.938V32.958ZM289.212 29.976V31.264H287.826V29.976H289.212ZM297.476 29.696V40H296.356V38.726C296.15 39.1647 295.838 39.5053 295.418 39.748C295.007 39.9813 294.526 40.098 293.976 40.098C293.36 40.098 292.814 39.944 292.338 39.636C291.871 39.328 291.507 38.8987 291.246 38.348C290.984 37.788 290.854 37.144 290.854 36.416C290.854 35.688 290.98 35.0533 291.232 34.512C291.493 33.9613 291.862 33.5367 292.338 33.238C292.814 32.9393 293.36 32.79 293.976 32.79C294.526 32.79 295.007 32.9113 295.418 33.154C295.828 33.3873 296.136 33.7187 296.342 34.148V29.696H297.476ZM294.2 39.16C294.89 39.16 295.422 38.9267 295.796 38.46C296.169 37.984 296.356 37.312 296.356 36.444C296.356 35.5853 296.169 34.9227 295.796 34.456C295.422 33.98 294.89 33.742 294.2 33.742C293.509 33.742 292.968 33.9753 292.576 34.442C292.193 34.9087 292.002 35.5667 292.002 36.416C292.002 37.284 292.193 37.9607 292.576 38.446C292.968 38.922 293.509 39.16 294.2 39.16ZM267.333 59.298C267.333 60.0447 267.067 60.67 266.535 61.174C266.003 61.678 265.298 61.9813 264.421 62.084V63.624H263.441V62.098C262.797 62.0607 262.199 61.9347 261.649 61.72C261.107 61.5053 260.631 61.2067 260.221 60.824L260.655 59.942C261.103 60.3247 261.551 60.6093 261.999 60.796C262.456 60.9827 262.951 61.09 263.483 61.118V57.562C262.839 57.394 262.307 57.2167 261.887 57.03C261.467 56.8433 261.112 56.5727 260.823 56.218C260.543 55.854 260.403 55.378 260.403 54.79C260.403 54.2767 260.529 53.8147 260.781 53.404C261.042 52.9933 261.401 52.662 261.859 52.41C262.316 52.1487 262.843 51.99 263.441 51.934V50.408H264.421V51.948C264.962 51.9947 265.475 52.1253 265.961 52.34C266.455 52.5547 266.875 52.8347 267.221 53.18L266.787 54.062C266.105 53.4087 265.303 53.0307 264.379 52.928V56.694C264.995 56.8433 265.503 57.0067 265.905 57.184C266.315 57.3613 266.656 57.6227 266.927 57.968C267.197 58.304 267.333 58.7473 267.333 59.298ZM261.579 54.748C261.579 55.224 261.742 55.588 262.069 55.84C262.395 56.092 262.867 56.302 263.483 56.47V52.928C262.885 52.984 262.419 53.1753 262.083 53.502C261.747 53.8193 261.579 54.2347 261.579 54.748ZM264.379 61.09C264.948 61.0153 265.387 60.8287 265.695 60.53C266.012 60.222 266.171 59.8207 266.171 59.326C266.171 58.9153 266.017 58.598 265.709 58.374C265.401 58.1407 264.957 57.9447 264.379 57.786V61.09ZM272.605 55.742C273.231 55.742 273.777 55.8773 274.243 56.148C274.719 56.4093 275.083 56.778 275.335 57.254C275.587 57.73 275.713 58.2807 275.713 58.906C275.713 59.5313 275.573 60.0867 275.293 60.572C275.023 61.0573 274.631 61.4353 274.117 61.706C273.613 61.9673 273.021 62.098 272.339 62.098C271.733 62.098 271.135 61.9907 270.547 61.776C269.959 61.552 269.465 61.2487 269.063 60.866L269.497 59.984C270.421 60.7493 271.369 61.132 272.339 61.132C273.039 61.132 273.585 60.936 273.977 60.544C274.379 60.1427 274.579 59.6013 274.579 58.92C274.579 58.2573 274.383 57.7253 273.991 57.324C273.599 56.9133 273.077 56.708 272.423 56.708C271.471 56.708 270.711 57.0953 270.141 57.87H269.343V52.032H275.321V52.984H270.491V56.54C271.042 56.008 271.747 55.742 272.605 55.742ZM284.318 59.83H282.806V62H281.658V59.83H277.066V58.962L281.868 52.032H282.806V58.878H284.318V59.83ZM281.658 58.878V53.978L278.256 58.878H281.658ZM288.974 62.112C287.836 62.112 286.968 61.6827 286.37 60.824C285.782 59.956 285.488 58.6867 285.488 57.016C285.488 55.3453 285.782 54.0807 286.37 53.222C286.968 52.354 287.836 51.92 288.974 51.92C290.113 51.92 290.976 52.354 291.564 53.222C292.162 54.0807 292.46 55.3407 292.46 57.002C292.46 58.6727 292.162 59.942 291.564 60.81C290.976 61.678 290.113 62.112 288.974 62.112ZM288.974 61.146C289.768 61.146 290.351 60.81 290.724 60.138C291.107 59.466 291.298 58.4207 291.298 57.002C291.298 55.5927 291.112 54.5567 290.738 53.894C290.365 53.2313 289.777 52.9 288.974 52.9C288.181 52.9 287.593 53.2313 287.21 53.894C286.837 54.5567 286.65 55.5927 286.65 57.002C286.65 58.4113 286.837 59.4567 287.21 60.138C287.593 60.81 288.181 61.146 288.974 61.146ZM297.369 62.112C296.23 62.112 295.362 61.6827 294.765 60.824C294.177 59.956 293.883 58.6867 293.883 57.016C293.883 55.3453 294.177 54.0807 294.765 53.222C295.362 52.354 296.23 51.92 297.369 51.92C298.508 51.92 299.371 52.354 299.959 53.222C300.556 54.0807 300.855 55.3407 300.855 57.002C300.855 58.6727 300.556 59.942 299.959 60.81C299.371 61.678 298.508 62.112 297.369 62.112ZM297.369 61.146C298.162 61.146 298.746 60.81 299.119 60.138C299.502 59.466 299.693 58.4207 299.693 57.002C299.693 55.5927 299.506 54.5567 299.133 53.894C298.76 53.2313 298.172 52.9 297.369 52.9C296.576 52.9 295.988 53.2313 295.605 53.894C295.232 54.5567 295.045 55.5927 295.045 57.002C295.045 58.4113 295.232 59.4567 295.605 60.138C295.988 60.81 296.576 61.146 297.369 61.146Z" fill="#405169"/>
<path d="M283.44 30.43C283.86 30.43 284.233 30.5267 284.56 30.72C284.893 30.9133 285.153 31.1833 285.34 31.53C285.527 31.8767 285.62 32.2733 285.62 32.72C285.62 33.1733 285.517 33.58 285.31 33.94C285.11 34.3 284.827 34.5833 284.46 34.79C284.1 34.99 283.69 35.09 283.23 35.09C282.33 35.09 281.637 34.7867 281.15 34.18C280.663 33.5667 280.42 32.6967 280.42 31.57C280.42 30.7833 280.533 30.1067 280.76 29.54C280.993 28.9733 281.327 28.54 281.76 28.24C282.2 27.94 282.72 27.79 283.32 27.79C283.747 27.79 284.16 27.8633 284.56 28.01C284.967 28.15 285.32 28.3533 285.62 28.62L285.18 29.56C284.553 29.0667 283.95 28.82 283.37 28.82C282.843 28.82 282.437 29.0433 282.15 29.49C281.863 29.9367 281.713 30.5767 281.7 31.41C281.853 31.11 282.087 30.8733 282.4 30.7C282.713 30.52 283.06 30.43 283.44 30.43ZM283.17 34.07C283.537 34.07 283.83 33.95 284.05 33.71C284.277 33.47 284.39 33.1533 284.39 32.76C284.39 32.3667 284.277 32.0533 284.05 31.82C283.83 31.58 283.533 31.46 283.16 31.46C282.787 31.46 282.483 31.58 282.25 31.82C282.017 32.06 281.9 32.3733 281.9 32.76C281.9 33.1467 282.017 33.4633 282.25 33.71C282.49 33.95 282.797 34.07 283.17 34.07Z" fill="white"/>
<path d="M350.5 15C350.5 12.5147 352.515 10.5 355 10.5H504C506.485 10.5 508.5 12.5147 508.5 15V70C508.5 72.4853 506.485 74.5 504 74.5H355C352.515 74.5 350.5 72.4853 350.5 70V15Z" stroke="#4C8DEB" stroke-opacity="0.186481"/>
<path fill-rule="evenodd" clip-rule="evenodd" d="M443 33.5C443 29.9101 445.91 27 449.5 27H457.5C461.09 27 464 29.9101 464 33.5C464 37.0899 461.09 40 457.5 40H449.5C445.91 40 443 37.0899 443 33.5Z" fill="#A0BCE4"/>
<path d="M411.272 38V28.032H415.248C416.275 28.032 417.073 28.2793 417.642 28.774C418.221 29.2687 418.51 29.95 418.51 30.818C418.51 31.6767 418.221 32.358 417.642 32.862C417.063 33.366 416.265 33.618 415.248 33.618H412.42V38H411.272ZM412.42 32.666H415.15C415.887 32.666 416.443 32.5073 416.816 32.19C417.189 31.8633 417.376 31.406 417.376 30.818C417.376 30.23 417.189 29.7773 416.816 29.46C416.443 29.1427 415.887 28.984 415.15 28.984H412.42V32.666ZM422.721 38.098C422.095 38.098 421.545 37.9533 421.069 37.664C420.602 37.3653 420.238 36.9453 419.977 36.404C419.725 35.8533 419.599 35.2093 419.599 34.472C419.599 33.7347 419.729 33.0907 419.991 32.54C420.252 31.9893 420.616 31.56 421.083 31.252C421.559 30.944 422.105 30.79 422.721 30.79C423.365 30.79 423.911 30.9487 424.359 31.266C424.807 31.5833 425.11 32.036 425.269 32.624L425.101 32.736V30.958H426.221V38H425.101V36.18L425.269 36.264C425.11 36.852 424.807 37.3047 424.359 37.622C423.911 37.9393 423.365 38.098 422.721 38.098ZM422.945 37.16C423.635 37.16 424.167 36.9267 424.541 36.46C424.914 35.984 425.101 35.312 425.101 34.444C425.101 33.576 424.909 32.9087 424.527 32.442C424.153 31.9753 423.626 31.742 422.945 31.742C422.254 31.742 421.713 31.9847 421.321 32.47C420.938 32.946 420.747 33.6133 420.747 34.472C420.747 35.3307 420.938 35.9933 421.321 36.46C421.713 36.9267 422.254 37.16 422.945 37.16ZM428.413 38V30.958H429.547V38H428.413ZM428.301 27.976H429.687V29.264H428.301V27.976ZM437.951 38H436.831V36.11L436.999 36.264C436.841 36.852 436.537 37.3047 436.089 37.622C435.641 37.9393 435.095 38.098 434.451 38.098C433.835 38.098 433.289 37.9487 432.813 37.65C432.347 37.342 431.983 36.9127 431.721 36.362C431.46 35.802 431.329 35.1533 431.329 34.416C431.329 33.6787 431.455 33.0393 431.707 32.498C431.969 31.9567 432.333 31.5367 432.799 31.238C433.275 30.9393 433.826 30.79 434.451 30.79C435.095 30.79 435.641 30.9533 436.089 31.28C436.537 31.5973 436.841 32.0453 436.999 32.624L436.817 32.764V27.696H437.951V38ZM434.675 37.16C435.357 37.16 435.884 36.9267 436.257 36.46C436.64 35.984 436.831 35.312 436.831 34.444C436.831 33.5853 436.645 32.9227 436.271 32.456C435.898 31.98 435.366 31.742 434.675 31.742C433.985 31.742 433.443 31.9753 433.051 32.442C432.669 32.9087 432.477 33.5667 432.477 34.416C432.477 35.284 432.669 35.9607 433.051 36.446C433.443 36.922 433.985 37.16 434.675 37.16ZM417.329 62.112C416.619 62.112 415.957 62.0047 415.341 61.79C414.725 61.566 414.188 61.244 413.731 60.824L414.165 59.942C414.659 60.362 415.154 60.6653 415.649 60.852C416.153 61.0387 416.708 61.132 417.315 61.132C418.061 61.132 418.64 60.9733 419.051 60.656C419.471 60.3387 419.681 59.8953 419.681 59.326C419.681 58.9807 419.573 58.7053 419.359 58.5C419.153 58.2947 418.878 58.1313 418.533 58.01C418.197 57.8793 417.823 57.7673 417.413 57.674C417.002 57.5713 416.591 57.4593 416.181 57.338C415.77 57.2167 415.392 57.058 415.047 56.862C414.701 56.6567 414.426 56.3907 414.221 56.064C414.015 55.7373 413.913 55.3127 413.913 54.79C413.913 54.23 414.062 53.7353 414.361 53.306C414.659 52.8673 415.07 52.5267 415.593 52.284C416.125 52.0413 416.731 51.92 417.413 51.92C417.833 51.92 418.243 51.9713 418.645 52.074C419.055 52.1673 419.438 52.3073 419.793 52.494C420.147 52.6807 420.46 52.9093 420.731 53.18L420.297 54.062C419.475 53.2873 418.514 52.9 417.413 52.9C416.694 52.9 416.125 53.0633 415.705 53.39C415.294 53.7167 415.089 54.1693 415.089 54.748C415.089 55.1307 415.191 55.4387 415.397 55.672C415.602 55.896 415.877 56.078 416.223 56.218C416.568 56.3487 416.946 56.4653 417.357 56.568C417.767 56.6613 418.173 56.7687 418.575 56.89C418.985 57.002 419.363 57.1513 419.709 57.338C420.054 57.5247 420.329 57.7767 420.535 58.094C420.74 58.402 420.843 58.8033 420.843 59.298C420.843 59.858 420.693 60.348 420.395 60.768C420.096 61.188 419.681 61.5193 419.149 61.762C418.626 61.9953 418.019 62.112 417.329 62.112ZM416.951 63.624V61.916L416.993 61.356V52.578L416.951 52.102V50.408H417.931V52.102L417.889 52.578V61.356L417.931 61.916V63.624H416.951ZM425.485 61.482V52.704L426.143 53.04L423.441 54.762V53.656L425.989 52.032H426.647V61.482H425.485ZM423.287 62V61.034H428.845V62H423.287ZM434.09 62.098C433.362 62.098 432.732 61.9907 432.2 61.776C431.668 61.552 431.252 61.2347 430.954 60.824C430.664 60.4133 430.52 59.9233 430.52 59.354C430.52 58.6633 430.753 58.0893 431.22 57.632C431.686 57.1747 432.312 56.89 433.096 56.778L433.026 56.988C432.298 56.848 431.733 56.5633 431.332 56.134C430.94 55.7047 430.744 55.182 430.744 54.566C430.744 54.0247 430.884 53.558 431.164 53.166C431.453 52.7647 431.845 52.4567 432.34 52.242C432.844 52.0273 433.427 51.92 434.09 51.92C434.752 51.92 435.331 52.0273 435.826 52.242C436.33 52.4567 436.722 52.7647 437.002 53.166C437.291 53.558 437.436 54.0247 437.436 54.566C437.436 55.182 437.235 55.7093 436.834 56.148C436.442 56.5773 435.886 56.8573 435.168 56.988L435.084 56.778C435.896 56.89 436.526 57.1793 436.974 57.646C437.431 58.1033 437.66 58.6727 437.66 59.354C437.66 59.9233 437.51 60.4133 437.212 60.824C436.922 61.2347 436.512 61.552 435.98 61.776C435.448 61.9907 434.818 62.098 434.09 62.098ZM434.09 61.146C434.874 61.146 435.476 60.9873 435.896 60.67C436.316 60.3527 436.526 59.8907 436.526 59.284C436.526 58.7147 436.297 58.2713 435.84 57.954C435.382 57.6273 434.799 57.4267 434.09 57.352C433.38 57.4267 432.797 57.6273 432.34 57.954C431.882 58.2713 431.654 58.7147 431.654 59.284C431.654 59.8907 431.864 60.3527 432.284 60.67C432.704 60.9873 433.306 61.146 434.09 61.146ZM434.09 56.554C434.743 56.4793 435.27 56.2787 435.672 55.952C436.082 55.6253 436.288 55.1913 436.288 54.65C436.288 54.09 436.092 53.656 435.7 53.348C435.317 53.0307 434.78 52.872 434.09 52.872C433.399 52.872 432.858 53.0307 432.466 53.348C432.083 53.656 431.892 54.09 431.892 54.65C431.892 55.1913 432.092 55.6253 432.494 55.952C432.904 56.2787 433.436 56.4793 434.09 56.554ZM442.386 62.098C441.742 62.098 441.122 61.9907 440.524 61.776C439.936 61.5613 439.437 61.258 439.026 60.866L439.474 59.984C439.922 60.3667 440.384 60.656 440.86 60.852C441.336 61.0387 441.836 61.132 442.358 61.132C443.068 61.132 443.604 60.9733 443.968 60.656C444.342 60.3387 444.528 59.872 444.528 59.256C444.528 58.64 444.337 58.1827 443.954 57.884C443.572 57.576 442.998 57.422 442.232 57.422H441.084V56.456H442.008C442.746 56.456 443.31 56.2927 443.702 55.966C444.094 55.6393 444.29 55.1727 444.29 54.566C444.29 54.0247 444.127 53.6093 443.8 53.32C443.483 53.0307 443.03 52.886 442.442 52.886C441.948 52.886 441.467 52.984 441 53.18C440.534 53.3667 440.072 53.6513 439.614 54.034L439.18 53.152C439.582 52.7693 440.076 52.4707 440.664 52.256C441.252 52.032 441.859 51.92 442.484 51.92C443.082 51.92 443.604 52.0273 444.052 52.242C444.5 52.4473 444.841 52.7413 445.074 53.124C445.317 53.5067 445.438 53.9593 445.438 54.482C445.438 55.098 445.275 55.6253 444.948 56.064C444.631 56.4933 444.192 56.7873 443.632 56.946L443.59 56.806C444.262 56.946 444.776 57.2307 445.13 57.66C445.485 58.0893 445.662 58.6353 445.662 59.298C445.662 60.166 445.368 60.852 444.78 61.356C444.192 61.8507 443.394 62.098 442.386 62.098ZM447.575 60.558H449.017V62H447.575V60.558ZM452.733 62H451.501L456.387 52.536L456.485 52.998H450.829V52.032H457.409V52.886L452.733 62ZM461.127 62H459.895L464.781 52.536L464.879 52.998H459.223V52.032H465.803V52.886L461.127 62ZM471.986 62V53.474H472.336L468.192 59.452L468.206 58.878H474.646V59.83H467.394V58.962L472.196 52.032H473.134V62H471.986Z" fill="#405169"/>
<path d="M451.44 32.43C451.86 32.43 452.233 32.5267 452.56 32.72C452.893 32.9133 453.153 33.1833 453.34 33.53C453.527 33.8767 453.62 34.2733 453.62 34.72C453.62 35.1733 453.517 35.58 453.31 35.94C453.11 36.3 452.827 36.5833 452.46 36.79C452.1 36.99 451.69 37.09 451.23 37.09C450.33 37.09 449.637 36.7867 449.15 36.18C448.663 35.5667 448.42 34.6967 448.42 33.57C448.42 32.7833 448.533 32.1067 448.76 31.54C448.993 30.9733 449.327 30.54 449.76 30.24C450.2 29.94 450.72 29.79 451.32 29.79C451.747 29.79 452.16 29.8633 452.56 30.01C452.967 30.15 453.32 30.3533 453.62 30.62L453.18 31.56C452.553 31.0667 451.95 30.82 451.37 30.82C450.843 30.82 450.437 31.0433 450.15 31.49C449.863 31.9367 449.713 32.5767 449.7 33.41C449.853 33.11 450.087 32.8733 450.4 32.7C450.713 32.52 451.06 32.43 451.44 32.43ZM451.17 36.07C451.537 36.07 451.83 35.95 452.05 35.71C452.277 35.47 452.39 35.1533 452.39 34.76C452.39 34.3667 452.277 34.0533 452.05 33.82C451.83 33.58 451.533 33.46 451.16 33.46C450.787 33.46 450.483 33.58 450.25 33.82C450.017 34.06 449.9 34.3733 449.9 34.76C449.9 35.1467 450.017 35.4633 450.25 35.71C450.49 35.95 450.797 36.07 451.17 36.07ZM458.196 33.34C458.656 33.4533 459.016 33.6633 459.276 33.97C459.536 34.2767 459.666 34.6467 459.666 35.08C459.666 35.4867 459.553 35.8433 459.326 36.15C459.106 36.45 458.793 36.68 458.386 36.84C457.986 37 457.523 37.08 456.996 37.08C456.469 37.08 456.003 37 455.596 36.84C455.196 36.68 454.883 36.45 454.656 36.15C454.436 35.8433 454.326 35.4867 454.326 35.08C454.326 34.6467 454.456 34.2767 454.716 33.97C454.976 33.6633 455.336 33.4533 455.796 33.34C455.396 33.2067 455.079 32.9967 454.846 32.71C454.619 32.4233 454.506 32.09 454.506 31.71C454.506 31.3233 454.613 30.9867 454.826 30.7C455.039 30.4067 455.333 30.1833 455.706 30.03C456.086 29.87 456.516 29.79 456.996 29.79C457.476 29.79 457.903 29.87 458.276 30.03C458.656 30.1833 458.953 30.4067 459.166 30.7C459.379 30.9867 459.486 31.3233 459.486 31.71C459.486 32.0967 459.369 32.4367 459.136 32.73C458.909 33.0167 458.596 33.22 458.196 33.34ZM456.996 30.8C456.603 30.8 456.293 30.89 456.066 31.07C455.839 31.25 455.726 31.5067 455.726 31.84C455.726 32.1533 455.839 32.41 456.066 32.61C456.299 32.8033 456.609 32.93 456.996 32.99C457.383 32.93 457.689 32.8033 457.916 32.61C458.149 32.41 458.266 32.1533 458.266 31.84C458.266 31.5067 458.153 31.25 457.926 31.07C457.699 30.89 457.389 30.8 456.996 30.8ZM456.996 36.07C457.449 36.07 457.803 35.9767 458.056 35.79C458.316 35.6033 458.446 35.3367 458.446 34.99C458.446 34.6633 458.313 34.4 458.046 34.2C457.786 34 457.436 33.87 456.996 33.81C456.556 33.87 456.203 34 455.936 34.2C455.676 34.4 455.546 34.6633 455.546 34.99C455.546 35.3367 455.673 35.6033 455.926 35.79C456.186 35.9767 456.543 36.07 456.996 36.07Z" fill="white"/>
<path d="M519.5 15C519.5 12.5147 521.515 10.5 524 10.5H673C675.485 10.5 677.5 12.5147 677.5 15V70C677.5 72.4853 675.485 74.5 673 74.5H524C521.515 74.5 519.5 72.4853 519.5 70V15Z" stroke="#4C8DEB" stroke-opacity="0.186481"/>
<path fill-rule="evenodd" clip-rule="evenodd" d="M622 33.5C622 29.9101 624.91 27 628.5 27H631.5C635.09 27 638 29.9101 638 33.5C638 37.0899 635.09 40 631.5 40H628.5C624.91 40 622 37.0899 622 33.5Z" fill="#A0BCE4"/>
<path d="M560.411 38.112C559.459 38.112 558.638 37.9067 557.947 37.496C557.256 37.0853 556.724 36.4973 556.351 35.732C555.978 34.9667 555.791 34.0567 555.791 33.002C555.791 31.9473 555.978 31.042 556.351 30.286C556.724 29.53 557.256 28.9467 557.947 28.536C558.638 28.1253 559.459 27.92 560.411 27.92C561.092 27.92 561.722 28.0273 562.301 28.242C562.88 28.4473 563.379 28.76 563.799 29.18L563.365 30.062C562.889 29.6513 562.418 29.3573 561.951 29.18C561.484 29.0027 560.976 28.914 560.425 28.914C559.333 28.914 558.484 29.2687 557.877 29.978C557.28 30.6873 556.981 31.6953 556.981 33.002C556.981 34.318 557.28 35.3353 557.877 36.054C558.474 36.7633 559.324 37.118 560.425 37.118C560.976 37.118 561.484 37.0293 561.951 36.852C562.418 36.6747 562.889 36.3807 563.365 35.97L563.799 36.852C563.379 37.272 562.88 37.5893 562.301 37.804C561.722 38.0093 561.092 38.112 560.411 38.112ZM568.15 38.098C567.525 38.098 566.974 37.9533 566.498 37.664C566.032 37.3653 565.668 36.9453 565.406 36.404C565.154 35.8533 565.028 35.2093 565.028 34.472C565.028 33.7347 565.159 33.0907 565.42 32.54C565.682 31.9893 566.046 31.56 566.512 31.252C566.988 30.944 567.534 30.79 568.15 30.79C568.794 30.79 569.34 30.9487 569.788 31.266C570.236 31.5833 570.54 32.036 570.698 32.624L570.53 32.736V30.958H571.65V38H570.53V36.18L570.698 36.264C570.54 36.852 570.236 37.3047 569.788 37.622C569.34 37.9393 568.794 38.098 568.15 38.098ZM568.374 37.16C569.065 37.16 569.597 36.9267 569.97 36.46C570.344 35.984 570.53 35.312 570.53 34.444C570.53 33.576 570.339 32.9087 569.956 32.442C569.583 31.9753 569.056 31.742 568.374 31.742C567.684 31.742 567.142 31.9847 566.75 32.47C566.368 32.946 566.176 33.6133 566.176 34.472C566.176 35.3307 566.368 35.9933 566.75 36.46C567.142 36.9267 567.684 37.16 568.374 37.16ZM573.843 38V32.932C573.843 32.6053 573.834 32.2787 573.815 31.952C573.806 31.616 573.778 31.2847 573.731 30.958H574.809L574.935 32.414L574.795 32.526C574.991 31.9567 575.318 31.5273 575.775 31.238C576.232 30.9393 576.76 30.79 577.357 30.79C579.046 30.79 579.891 31.7187 579.891 33.576V38H578.757V33.632C578.757 32.9787 578.626 32.5027 578.365 32.204C578.104 31.896 577.693 31.742 577.133 31.742C576.48 31.742 575.957 31.9427 575.565 32.344C575.173 32.7453 574.977 33.2867 574.977 33.968V38H573.843ZM584.986 38.098C584.296 38.098 583.698 37.9487 583.194 37.65C582.69 37.3513 582.298 36.9313 582.018 36.39C581.748 35.8487 581.612 35.2093 581.612 34.472C581.612 33.744 581.752 33.1047 582.032 32.554C582.312 31.994 582.709 31.56 583.222 31.252C583.736 30.944 584.342 30.79 585.042 30.79C585.518 30.79 585.976 30.874 586.414 31.042C586.862 31.2007 587.231 31.4247 587.52 31.714L587.142 32.554C586.797 32.2833 586.456 32.0827 586.12 31.952C585.794 31.812 585.453 31.742 585.098 31.742C584.389 31.742 583.824 31.98 583.404 32.456C582.994 32.932 582.788 33.604 582.788 34.472C582.788 35.3307 582.994 35.9933 583.404 36.46C583.815 36.9267 584.38 37.16 585.098 37.16C585.444 37.16 585.784 37.0947 586.12 36.964C586.456 36.824 586.797 36.6187 587.142 36.348L587.52 37.188C587.222 37.468 586.844 37.692 586.386 37.86C585.938 38.0187 585.472 38.098 584.986 38.098ZM594.732 37.16C594.424 37.4493 594.027 37.678 593.542 37.846C593.066 38.014 592.576 38.098 592.072 38.098C591.344 38.098 590.714 37.9533 590.182 37.664C589.659 37.3747 589.253 36.9593 588.964 36.418C588.684 35.8673 588.544 35.214 588.544 34.458C588.544 33.73 588.684 33.0907 588.964 32.54C589.244 31.9893 589.631 31.56 590.126 31.252C590.63 30.944 591.209 30.79 591.862 30.79C592.487 30.79 593.024 30.93 593.472 31.21C593.92 31.4807 594.261 31.8727 594.494 32.386C594.737 32.8993 594.858 33.5153 594.858 34.234V34.444H589.538V33.702H594.214L593.85 34.22C593.869 33.3987 593.705 32.7687 593.36 32.33C593.024 31.8913 592.529 31.672 591.876 31.672C591.195 31.672 590.658 31.9147 590.266 32.4C589.883 32.876 589.692 33.5387 589.692 34.388C589.692 35.3027 589.893 35.9933 590.294 36.46C590.705 36.9267 591.302 37.16 592.086 37.16C592.497 37.16 592.889 37.0947 593.262 36.964C593.645 36.824 594.009 36.614 594.354 36.334L594.732 37.16ZM596.579 38V27.696H597.713V38H596.579ZM599.915 38V27.696H601.049V38H599.915ZM609.019 37.16C608.711 37.4493 608.315 37.678 607.829 37.846C607.353 38.014 606.863 38.098 606.359 38.098C605.631 38.098 605.001 37.9533 604.469 37.664C603.947 37.3747 603.541 36.9593 603.251 36.418C602.971 35.8673 602.831 35.214 602.831 34.458C602.831 33.73 602.971 33.0907 603.251 32.54C603.531 31.9893 603.919 31.56 604.413 31.252C604.917 30.944 605.496 30.79 606.149 30.79C606.775 30.79 607.311 30.93 607.759 31.21C608.207 31.4807 608.548 31.8727 608.781 32.386C609.024 32.8993 609.145 33.5153 609.145 34.234V34.444H603.825V33.702H608.501L608.137 34.22C608.156 33.3987 607.993 32.7687 607.647 32.33C607.311 31.8913 606.817 31.672 606.163 31.672C605.482 31.672 604.945 31.9147 604.553 32.4C604.171 32.876 603.979 33.5387 603.979 34.388C603.979 35.3027 604.18 35.9933 604.581 36.46C604.992 36.9267 605.589 37.16 606.373 37.16C606.784 37.16 607.176 37.0947 607.549 36.964C607.932 36.824 608.296 36.614 608.641 36.334L609.019 37.16ZM617.068 38H615.948V36.11L616.116 36.264C615.958 36.852 615.654 37.3047 615.206 37.622C614.758 37.9393 614.212 38.098 613.568 38.098C612.952 38.098 612.406 37.9487 611.93 37.65C611.464 37.342 611.1 36.9127 610.838 36.362C610.577 35.802 610.446 35.1533 610.446 34.416C610.446 33.6787 610.572 33.0393 610.824 32.498C611.086 31.9567 611.45 31.5367 611.916 31.238C612.392 30.9393 612.943 30.79 613.568 30.79C614.212 30.79 614.758 30.9533 615.206 31.28C615.654 31.5973 615.958 32.0453 616.116 32.624L615.934 32.764V27.696H617.068V38ZM613.792 37.16C614.474 37.16 615.001 36.9267 615.374 36.46C615.757 35.984 615.948 35.312 615.948 34.444C615.948 33.5853 615.762 32.9227 615.388 32.456C615.015 31.98 614.483 31.742 613.792 31.742C613.102 31.742 612.56 31.9753 612.168 32.442C611.786 32.9087 611.594 33.5667 611.594 34.416C611.594 35.284 611.786 35.9607 612.168 36.446C612.56 36.922 613.102 37.16 613.792 37.16ZM586.24 62.112C585.53 62.112 584.868 62.0047 584.252 61.79C583.636 61.566 583.099 61.244 582.642 60.824L583.076 59.942C583.57 60.362 584.065 60.6653 584.56 60.852C585.064 61.0387 585.619 61.132 586.226 61.132C586.972 61.132 587.551 60.9733 587.962 60.656C588.382 60.3387 588.592 59.8953 588.592 59.326C588.592 58.9807 588.484 58.7053 588.27 58.5C588.064 58.2947 587.789 58.1313 587.444 58.01C587.108 57.8793 586.734 57.7673 586.324 57.674C585.913 57.5713 585.502 57.4593 585.092 57.338C584.681 57.2167 584.303 57.058 583.958 56.862C583.612 56.6567 583.337 56.3907 583.132 56.064C582.926 55.7373 582.824 55.3127 582.824 54.79C582.824 54.23 582.973 53.7353 583.272 53.306C583.57 52.8673 583.981 52.5267 584.504 52.284C585.036 52.0413 585.642 51.92 586.324 51.92C586.744 51.92 587.154 51.9713 587.556 52.074C587.966 52.1673 588.349 52.3073 588.704 52.494C589.058 52.6807 589.371 52.9093 589.642 53.18L589.208 54.062C588.386 53.2873 587.425 52.9 586.324 52.9C585.605 52.9 585.036 53.0633 584.616 53.39C584.205 53.7167 584 54.1693 584 54.748C584 55.1307 584.102 55.4387 584.308 55.672C584.513 55.896 584.788 56.078 585.134 56.218C585.479 56.3487 585.857 56.4653 586.268 56.568C586.678 56.6613 587.084 56.7687 587.486 56.89C587.896 57.002 588.274 57.1513 588.62 57.338C588.965 57.5247 589.24 57.7767 589.446 58.094C589.651 58.402 589.754 58.8033 589.754 59.298C589.754 59.858 589.604 60.348 589.306 60.768C589.007 61.188 588.592 61.5193 588.06 61.762C587.537 61.9953 586.93 62.112 586.24 62.112ZM585.862 63.624V61.916L585.904 61.356V52.578L585.862 52.102V50.408H586.842V52.102L586.8 52.578V61.356L586.842 61.916V63.624H585.862ZM594.928 62.112C593.724 62.112 592.796 61.6967 592.142 60.866C591.489 60.026 591.162 58.8267 591.162 57.268C591.162 56.1387 591.312 55.1773 591.61 54.384C591.918 53.5813 592.357 52.97 592.926 52.55C593.505 52.13 594.196 51.92 594.998 51.92C595.577 51.92 596.137 52.0273 596.678 52.242C597.22 52.4473 597.7 52.7507 598.12 53.152L597.686 54.034C597.22 53.6327 596.767 53.3433 596.328 53.166C595.899 52.9793 595.465 52.886 595.026 52.886C594.168 52.886 593.5 53.2687 593.024 54.034C592.548 54.79 592.31 55.8633 592.31 57.254V58.458L592.142 58.08C592.217 57.604 592.39 57.1933 592.66 56.848C592.931 56.4933 593.267 56.2227 593.668 56.036C594.079 55.84 594.532 55.742 595.026 55.742C595.642 55.742 596.184 55.8773 596.65 56.148C597.117 56.4093 597.481 56.778 597.742 57.254C598.004 57.73 598.134 58.2807 598.134 58.906C598.134 59.522 597.994 60.0727 597.714 60.558C597.444 61.0433 597.066 61.426 596.58 61.706C596.104 61.9767 595.554 62.112 594.928 62.112ZM594.872 61.146C595.507 61.146 596.02 60.9453 596.412 60.544C596.804 60.1333 597 59.592 597 58.92C597 58.2573 596.804 57.7253 596.412 57.324C596.02 56.9133 595.502 56.708 594.858 56.708C594.429 56.708 594.046 56.806 593.71 57.002C593.374 57.1887 593.113 57.45 592.926 57.786C592.74 58.1127 592.646 58.4907 592.646 58.92C592.646 59.368 592.74 59.76 592.926 60.096C593.113 60.4227 593.374 60.6793 593.71 60.866C594.046 61.0527 594.434 61.146 594.872 61.146ZM603.001 62.112C601.862 62.112 600.994 61.6827 600.397 60.824C599.809 59.956 599.515 58.6867 599.515 57.016C599.515 55.3453 599.809 54.0807 600.397 53.222C600.985 52.354 601.853 51.92 603.001 51.92C604.149 51.92 605.017 52.354 605.605 53.222C606.193 54.0807 606.487 55.3407 606.487 57.002C606.487 58.6727 606.188 59.942 605.591 60.81C605.003 61.678 604.139 62.112 603.001 62.112ZM603.001 61.146C603.794 61.146 604.377 60.81 604.751 60.138C605.133 59.466 605.325 58.4207 605.325 57.002C605.325 55.5833 605.133 54.5473 604.751 53.894C604.377 53.2313 603.794 52.9 603.001 52.9C602.207 52.9 601.619 53.2313 601.237 53.894C600.863 54.5567 600.677 55.5927 600.677 57.002C600.677 58.4207 600.863 59.466 601.237 60.138C601.619 60.81 602.207 61.146 603.001 61.146ZM611.395 62.112C610.257 62.112 609.389 61.6827 608.791 60.824C608.203 59.956 607.909 58.6867 607.909 57.016C607.909 55.3453 608.203 54.0807 608.791 53.222C609.379 52.354 610.247 51.92 611.395 51.92C612.543 51.92 613.411 52.354 613.999 53.222C614.587 54.0807 614.881 55.3407 614.881 57.002C614.881 58.6727 614.583 59.942 613.985 60.81C613.397 61.678 612.534 62.112 611.395 62.112ZM611.395 61.146C612.189 61.146 612.772 60.81 613.145 60.138C613.528 59.466 613.719 58.4207 613.719 57.002C613.719 55.5833 613.528 54.5473 613.145 53.894C612.772 53.2313 612.189 52.9 611.395 52.9C610.602 52.9 610.014 53.2313 609.631 53.894C609.258 54.5567 609.071 55.5927 609.071 57.002C609.071 58.4207 609.258 59.466 609.631 60.138C610.014 60.81 610.602 61.146 611.395 61.146Z" fill="#405169"/>
<path d="M632.49 35.95V37H627.71V36.05L630.13 33.44C630.417 33.1267 630.627 32.84 630.76 32.58C630.893 32.32 630.96 32.0633 630.96 31.81C630.96 31.4833 630.863 31.2367 630.67 31.07C630.483 30.9033 630.213 30.82 629.86 30.82C629.233 30.82 628.59 31.0667 627.93 31.56L627.5 30.62C627.78 30.3667 628.14 30.1667 628.58 30.02C629.02 29.8667 629.463 29.79 629.91 29.79C630.623 29.79 631.187 29.9667 631.6 30.32C632.02 30.6667 632.23 31.1367 632.23 31.73C632.23 32.1367 632.14 32.52 631.96 32.88C631.787 33.24 631.493 33.6433 631.08 34.09L629.33 35.95H632.49Z" fill="white"/>
<defs>
<filter id="filter0_d_1_394" x="0" y="0" width="183" height="89" filterUnits="userSpaceOnUse" color-interpolation-filters="sRGB">
<feFlood flood-opacity="0" result="BackgroundImageFix"/>
<feColorMatrix in="SourceAlpha" type="matrix" values="0 0 0 0 0 0 0 0 0 0 0 0 0 0 0 0 0 0 127 0" result="hardAlpha"/>
<feOffset dy="2"/>
<feGaussianBlur stdDeviation="6"/>
<feColorMatrix type="matrix" values="0 0 0 0 0.299079 0 0 0 0 0.554519 0 0 0 0 0.923416 0 0 0 0.186481 0"/>
<feBlend mode="normal" in2="BackgroundImageFix" result="effect1_dropShadow_1_394"/>
<feBlend mode="normal" in="SourceGraphic" in2="effect1_dropShadow_1_394" result="shape"/>
</filter>
<linearGradient id="paint0_linear_1_394" x1="12" y1="74.5406" x2="168.753" y2="74.5406" gradientUnits="userSpaceOnUse">
<stop stop-color="#4C8DEB"/>
<stop offset="1" stop-color="#4C74EC"/>
</linearGradient>
</defs>
</svg>
