<svg width="198" height="17" viewBox="0 0 198 17" fill="none" xmlns="http://www.w3.org/2000/svg">
<path fill-rule="evenodd" clip-rule="evenodd" d="M11.1493 10.4319L14.4461 13.6785C14.6025 13.8326 14.6025 14.0873 14.4461 14.2414C14.3679 14.3213 14.2626 14.3599 14.1604 14.3599C14.0581 14.3599 13.9528 14.3184 13.8746 14.2414L10.5777 10.9947C9.561 11.8656 8.23444 12.3929 6.78454 12.3929C3.59598 12.3929 1 9.83646 1 6.69645C1 3.55644 3.59297 1 6.78454 1C9.97311 1 12.5691 3.55348 12.5691 6.69645C12.5691 8.12427 12.0336 9.43063 11.1493 10.4319ZM6.78154 1.79981C4.04117 1.79981 1.80917 3.99486 1.80917 6.69645C1.80917 9.39805 4.04117 11.5961 6.78154 11.5961C9.52491 11.5961 11.7539 9.39509 11.7539 6.69645C11.7539 3.99782 9.52491 1.79981 6.78154 1.79981Z" fill="#405169" stroke="#405169" stroke-width="0.5"/>
<path d="M26.0927 13.096C24.7567 13.096 23.6927 12.736 22.9007 12.016L23.2727 11.26C23.6967 11.62 24.1287 11.876 24.5687 12.028C25.0087 12.18 25.5207 12.256 26.1047 12.256C26.7927 12.256 27.3207 12.124 27.6887 11.86C28.0647 11.588 28.2527 11.208 28.2527 10.72C28.2527 10.432 28.1607 10.2 27.9767 10.024C27.8007 9.84 27.5647 9.696 27.2687 9.592C26.9807 9.488 26.5927 9.38 26.1047 9.268C25.4487 9.124 24.9087 8.968 24.4847 8.8C24.0607 8.632 23.7167 8.392 23.4527 8.08C23.1887 7.76 23.0567 7.344 23.0567 6.832C23.0567 6.344 23.1847 5.916 23.4407 5.548C23.6967 5.172 24.0567 4.88 24.5207 4.672C24.9927 4.464 25.5407 4.36 26.1647 4.36C26.7567 4.36 27.3087 4.452 27.8207 4.636C28.3327 4.82 28.7647 5.088 29.1167 5.44L28.7327 6.196C28.3327 5.852 27.9247 5.6 27.5087 5.44C27.1007 5.28 26.6527 5.2 26.1647 5.2C25.5007 5.2 24.9807 5.344 24.6047 5.632C24.2287 5.912 24.0407 6.3 24.0407 6.796C24.0407 7.228 24.2047 7.552 24.5327 7.768C24.8607 7.984 25.3647 8.172 26.0447 8.332C26.7807 8.508 27.3567 8.672 27.7727 8.824C28.1967 8.968 28.5487 9.192 28.8287 9.496C29.1087 9.792 29.2487 10.188 29.2487 10.684C29.2487 11.164 29.1207 11.588 28.8647 11.956C28.6087 12.316 28.2407 12.596 27.7607 12.796C27.2887 12.996 26.7327 13.096 26.0927 13.096ZM35.7893 9.952H31.3613C31.3693 10.72 31.5453 11.3 31.8893 11.692C32.2413 12.084 32.7493 12.28 33.4133 12.28C34.1173 12.28 34.7653 12.044 35.3573 11.572L35.6813 12.28C35.4173 12.528 35.0773 12.724 34.6613 12.868C34.2533 13.012 33.8333 13.084 33.4013 13.084C32.4573 13.084 31.7173 12.808 31.1813 12.256C30.6453 11.696 30.3773 10.932 30.3773 9.964C30.3773 9.348 30.4973 8.804 30.7373 8.332C30.9773 7.852 31.3133 7.48 31.7453 7.216C32.1773 6.952 32.6693 6.82 33.2213 6.82C34.0213 6.82 34.6493 7.084 35.1053 7.612C35.5613 8.132 35.7893 8.852 35.7893 9.772V9.952ZM33.2333 7.576C32.7293 7.576 32.3173 7.728 31.9973 8.032C31.6853 8.336 31.4853 8.764 31.3973 9.316H34.9133C34.8653 8.748 34.6973 8.316 34.4093 8.02C34.1293 7.724 33.7373 7.576 33.2333 7.576ZM42.5806 6.964V13H41.6206V11.908C41.4446 12.284 41.1766 12.576 40.8166 12.784C40.4646 12.984 40.0526 13.084 39.5806 13.084C39.0446 13.084 38.5726 12.956 38.1646 12.7C37.7646 12.444 37.4526 12.084 37.2286 11.62C37.0126 11.148 36.9046 10.6 36.9046 9.976C36.9046 9.352 37.0166 8.804 37.2406 8.332C37.4646 7.852 37.7766 7.48 38.1766 7.216C38.5846 6.952 39.0526 6.82 39.5806 6.82C40.0526 6.82 40.4646 6.924 40.8166 7.132C41.1686 7.34 41.4366 7.632 41.6206 8.008V6.964H42.5806ZM39.7726 12.28C40.3646 12.28 40.8206 12.08 41.1406 11.68C41.4606 11.272 41.6206 10.696 41.6206 9.952C41.6206 9.208 41.4606 8.636 41.1406 8.236C40.8206 7.836 40.3646 7.636 39.7726 7.636C39.1806 7.636 38.7166 7.844 38.3806 8.26C38.0526 8.668 37.8886 9.24 37.8886 9.976C37.8886 10.712 38.0526 11.28 38.3806 11.68C38.7086 12.08 39.1726 12.28 39.7726 12.28ZM47.2679 6.82C47.4679 6.82 47.6519 6.844 47.8199 6.892L47.7959 7.78C47.6119 7.716 47.3999 7.684 47.1599 7.684C46.5759 7.684 46.1399 7.868 45.8519 8.236C45.5719 8.596 45.4319 9.036 45.4319 9.556V13H44.4599V8.656C44.4599 8.032 44.4279 7.468 44.3639 6.964H45.2879L45.3839 8.08C45.5359 7.672 45.7799 7.36 46.1159 7.144C46.4519 6.928 46.8359 6.82 47.2679 6.82ZM51.2224 13.084C50.6384 13.084 50.1264 12.956 49.6864 12.7C49.2544 12.444 48.9184 12.084 48.6784 11.62C48.4464 11.148 48.3304 10.6 48.3304 9.976C48.3304 9.352 48.4504 8.804 48.6904 8.332C48.9304 7.852 49.2704 7.48 49.7104 7.216C50.1584 6.952 50.6784 6.82 51.2704 6.82C51.6784 6.82 52.0704 6.892 52.4464 7.036C52.8304 7.172 53.1464 7.364 53.3944 7.612L53.0704 8.332C52.7664 8.092 52.4704 7.916 52.1824 7.804C51.9024 7.692 51.6144 7.636 51.3184 7.636C50.7024 7.636 50.2184 7.844 49.8664 8.26C49.5144 8.668 49.3384 9.24 49.3384 9.976C49.3384 10.704 49.5104 11.272 49.8544 11.68C50.2064 12.08 50.6944 12.28 51.3184 12.28C51.6144 12.28 51.9024 12.224 52.1824 12.112C52.4704 12 52.7664 11.824 53.0704 11.584L53.3944 12.304C53.1384 12.544 52.8144 12.736 52.4224 12.88C52.0384 13.016 51.6384 13.084 51.2224 13.084ZM57.6438 6.82C59.0918 6.82 59.8158 7.616 59.8158 9.208V13H58.8438V9.256C58.8438 8.696 58.7318 8.288 58.5078 8.032C58.2838 7.768 57.9318 7.636 57.4518 7.636C56.8918 7.636 56.4438 7.808 56.1078 8.152C55.7718 8.496 55.6038 8.96 55.6038 9.544V13H54.6318V4.168H55.6038V7.948C55.7958 7.58 56.0678 7.3 56.4198 7.108C56.7798 6.916 57.1878 6.82 57.6438 6.82Z" fill="#405169"/>
</svg>
