<svg width="52" height="12" viewBox="0 0 52 12" fill="none" xmlns="http://www.w3.org/2000/svg">
<path d="M0.092 11V1.13H1.898V11H0.092ZM3.93052 11V5.694C3.93052 5.40467 3.92118 5.11067 3.90252 4.812C3.88385 4.51333 3.85585 4.21933 3.81852 3.93H5.51252L5.65252 5.33H5.48452C5.70852 4.83533 6.03985 4.45733 6.47852 4.196C6.91718 3.92533 7.42585 3.79 8.00452 3.79C8.83518 3.79 9.46052 4.02333 9.88052 4.49C10.3005 4.95667 10.5105 5.68467 10.5105 6.674V11H8.76052V6.758C8.76052 6.18867 8.64852 5.78267 8.42452 5.54C8.20985 5.288 7.88318 5.162 7.44452 5.162C6.90318 5.162 6.47385 5.33 6.15652 5.666C5.83918 6.002 5.68052 6.45 5.68052 7.01V11H3.93052ZM14.3697 11L11.3177 3.93H13.1797L15.3917 9.46H14.9577L17.2257 3.93H18.9757L15.9097 11H14.3697ZM22.9682 11.14C22.2402 11.14 21.6102 10.9907 21.0782 10.692C20.5462 10.3933 20.1309 9.96867 19.8322 9.418C19.5429 8.86733 19.3982 8.214 19.3982 7.458C19.3982 6.702 19.5429 6.05333 19.8322 5.512C20.1309 4.96133 20.5462 4.53667 21.0782 4.238C21.6102 3.93933 22.2402 3.79 22.9682 3.79C23.6962 3.79 24.3262 3.93933 24.8582 4.238C25.3996 4.53667 25.8149 4.96133 26.1042 5.512C26.4029 6.05333 26.5522 6.702 26.5522 7.458C26.5522 8.214 26.4029 8.86733 26.1042 9.418C25.8149 9.96867 25.3996 10.3933 24.8582 10.692C24.3262 10.9907 23.6962 11.14 22.9682 11.14ZM22.9682 9.796C23.5189 9.796 23.9576 9.60467 24.2842 9.222C24.6109 8.83 24.7742 8.242 24.7742 7.458C24.7742 6.674 24.6109 6.09067 24.2842 5.708C23.9576 5.32533 23.5189 5.134 22.9682 5.134C22.4176 5.134 21.9789 5.32533 21.6522 5.708C21.3256 6.09067 21.1622 6.674 21.1622 7.458C21.1622 8.242 21.3256 8.83 21.6522 9.222C21.9789 9.60467 22.4176 9.796 22.9682 9.796ZM28.0614 11V3.93H29.8114V11H28.0614ZM27.9634 2.6V0.891999H29.9094V2.6H27.9634ZM34.9598 11.14C34.2318 11.14 33.5924 10.9907 33.0418 10.692C32.5004 10.3933 32.0804 9.96867 31.7818 9.418C31.4831 8.858 31.3338 8.19533 31.3338 7.43C31.3338 6.66467 31.4831 6.01133 31.7818 5.47C32.0898 4.92867 32.5144 4.51333 33.0558 4.224C33.5971 3.93467 34.2318 3.79 34.9598 3.79C35.4264 3.79 35.8791 3.86467 36.3178 4.014C36.7658 4.154 37.1298 4.35933 37.4098 4.63L36.8778 5.848C36.6258 5.61467 36.3411 5.442 36.0238 5.33C35.7158 5.20867 35.4124 5.148 35.1138 5.148C34.4884 5.148 33.9984 5.344 33.6438 5.736C33.2984 6.128 33.1258 6.69733 33.1258 7.444C33.1258 8.19067 33.2984 8.76467 33.6438 9.166C33.9984 9.56733 34.4884 9.768 35.1138 9.768C35.4031 9.768 35.7018 9.712 36.0098 9.6C36.3271 9.488 36.6164 9.31533 36.8778 9.082L37.4098 10.286C37.1204 10.5567 36.7518 10.7667 36.3038 10.916C35.8651 11.0653 35.4171 11.14 34.9598 11.14ZM42.0457 11.14C40.8604 11.14 39.9317 10.8133 39.2597 10.16C38.5877 9.50667 38.2517 8.61067 38.2517 7.472C38.2517 6.73467 38.3964 6.09067 38.6857 5.54C38.9751 4.98933 39.3764 4.56 39.8897 4.252C40.4124 3.944 41.0191 3.79 41.7097 3.79C42.3911 3.79 42.9604 3.93467 43.4177 4.224C43.8751 4.51333 44.2204 4.91933 44.4537 5.442C44.6964 5.96467 44.8177 6.576 44.8177 7.276V7.738H39.6657V6.814H43.5717L43.3337 7.01C43.3337 6.35667 43.1937 5.85733 42.9137 5.512C42.6431 5.16667 42.2464 4.994 41.7237 4.994C41.1451 4.994 40.6971 5.19933 40.3797 5.61C40.0717 6.02067 39.9177 6.59467 39.9177 7.332V7.514C39.9177 8.27933 40.1044 8.85333 40.4777 9.236C40.8604 9.60933 41.3971 9.796 42.0877 9.796C42.4891 9.796 42.8624 9.74467 43.2077 9.642C43.5624 9.53 43.8984 9.35267 44.2157 9.11L44.7337 10.286C44.3977 10.5567 43.9964 10.7667 43.5297 10.916C43.0631 11.0653 42.5684 11.14 42.0457 11.14ZM48.8197 11.14C48.213 11.14 47.653 11.07 47.1397 10.93C46.6357 10.7807 46.211 10.5753 45.8657 10.314L46.3557 9.138C46.7103 9.38067 47.1023 9.56733 47.5317 9.698C47.961 9.82867 48.395 9.894 48.8337 9.894C49.3003 9.894 49.6457 9.81467 49.8697 9.656C50.103 9.49733 50.2197 9.28267 50.2197 9.012C50.2197 8.79733 50.145 8.62933 49.9957 8.508C49.8557 8.37733 49.627 8.27933 49.3097 8.214L47.9097 7.948C47.3123 7.81733 46.855 7.59333 46.5377 7.276C46.2297 6.95867 46.0757 6.54333 46.0757 6.03C46.0757 5.59133 46.1923 5.204 46.4257 4.868C46.6683 4.532 47.009 4.27067 47.4477 4.084C47.8957 3.888 48.4183 3.79 49.0157 3.79C49.5383 3.79 50.0283 3.86 50.4857 4C50.9523 4.14 51.3443 4.35 51.6617 4.63L51.1577 5.764C50.8683 5.53067 50.537 5.34867 50.1637 5.218C49.7903 5.08733 49.4263 5.022 49.0717 5.022C48.5863 5.022 48.2317 5.11067 48.0077 5.288C47.7837 5.456 47.6717 5.67533 47.6717 5.946C47.6717 6.15133 47.737 6.324 47.8677 6.464C48.0077 6.59467 48.2223 6.69267 48.5117 6.758L49.9117 7.024C50.537 7.14533 51.0083 7.36 51.3257 7.668C51.6523 7.96667 51.8157 8.37733 51.8157 8.9C51.8157 9.36667 51.6897 9.768 51.4377 10.104C51.1857 10.44 50.8357 10.6967 50.3877 10.874C49.9397 11.0513 49.417 11.14 48.8197 11.14Z" fill="#405169"/>
</svg>
